<?xml version="1.0" encoding="UTF-8"?>
<svg version="1.1" viewBox="0 0 1600 1600" width="1280" height="1280" xmlns="http://www.w3.org/2000/svg">
<path transform="translate(0)" d="m0 0h1600v1600h-1600z" fill="#FDFDFD"/>
<path transform="translate(567,201)" d="m0 0h18l23 3 23 6 18 8 15 8 9 6 11 8 14 12 14 14 6 7 12-1-1 5-7 1 14 20 13 23 13 27 6 17 5 13 10 36 7 36 3 21 3 39v10l21 1 15 3 18 7 8 5 12 9 3 2v2h2v2l4 2 10 8 10 9 11 9 3 3h6l11-4 1-8 1-1v-5l-2-5v-30l3-8 5-6 6-3h10l33 7 95 19-6 7-16 16h-8l-83-17h-6v8l40 8 30 1 24 3 19 5 5 2 8 2 16 7 13 8 9 7v2h10v-3l8-7h2l1-3 6-4h2l2-4 12-13 5-6 8 1v-9l7-8 10-11h10l59 12 8 4 7 7v2h2v3l-5 2-10 1-3-2-66-13 1 7 52 11 3 2-15 2-20 4-3 1h-9l-9-2 2 5v3l26 5 28 6-1 2-36 6-14 1-3 2-21 3-20 4-30 5h-7v-5l-9-10-10-7-15-9-14-6-20-6-11-2h-5l7 2-6 7-10 10-12-2-30-6-23-5h-5v7l9 3 48 10 3 1v2l-5 5-10 9h-8v-2l-10-1-20-4-8-1 1 9 11 3 19 3 4 1-1 4-6 5-7 8-5 4-2-5-8-1-10 11-6 8-10 11-7 8-9 10-9 11-6 8-10 2h-18l-7-6-2-5-4-2-4-5 6 15v4l-4 1-31 1h-51l-2-1-3-20-2 20-1 1h-15l-4-1 1-9v-16l-3-9-2-3h-7l-5 7-3 10-1 11v9l-21-1 1-15 1-14-9 27-1 1h-14l-38-3-58-6 1-12h-2v14l-7 5-1 2h-2l-1 6-3 54v20l6 9 6 4 15 3 7 1 4 13 8 31 1 7-16-1h-16l-6 4-4 5-2 5-3 46-1 14v11l5 10 6 5 9 3 16 2 28 2 11 1 1 1 33 3 37 2 27 1 62 1 51-2 58-4 57-6 11-2 6-3 6-7 3-7v-17l-3-49-2-9-4-6-8-4-8-1-57 6-39 3-39 2-34 1h-35l-22-1 2-2 15-3 70-17 39-9 18-5 3-3 3-8 1-7 36-3 15-2 20-2 11-2 7-2v-2l8-5 2-2v-19l-1-20v-5h2l2-4 2-3h2l2-4 5-6 2 1 9 101 4 46 4 41 4 16 7 12 5 5 6 3 3 3 12 4h17l21-5 32-8h3v-2l64-17 42-11 37-10 14-7 10-10 5-8 1-5h2l4-16 1-8v-10l-6-80-2-33-2-31-4-45-1-17 3-2 6-1h19l10 4 9 7 6 8 4 8 3 12 3 48 1 7 9 9 7 8 12 15 11 16 8 13 2 5-11 7-8 3v2l7-1 10-6 4-2 8 16 8 18 10 30 6 26 3 17 2 18v37l-2 21-4 23-9 29-5 11-9 19-7 10-7 11-2 3h-2l-2 4-5 7h-2l-2 4-11 11-8 7-3 1v2l-5 2v2l-4 1v2l-16 10-17 10-22 10-30 10-17 4h-5l7 9-6 7-5 3-7 8-9 8h-2l-2 4-15 14-3 3-5-2-3-2 4 5-1 4-8 7-4 3-5-1-10-9-11-9-15-13-10-8-5 2-5 1-1 3-13 8-12 11-7 8-4 5-6 13-4 11-2 13v15l3 17 6 18 6 12v2l16 1-3 7-2 6 2 3 247 1v4h-242l5 5 11 10 13 9 11 6 4 2v4l-6-1-17-10-11-8-16-16-12-1v-5l6-1-2-3-19-1 1-5 3-6h7v-3h-2l-4-9-6-16-4-20v-18l3-15 5-14 6-11 8-10 9-9 17-12h3v-2h3v-2l4-2-2-4-15-13-22-18-28-7-23-7-27-8-17-6h-4l-26 36-14 19-13 18-4 1-4-2v-2h-3v-2h-3l-3-3-3-1v-2h-3v-2l-5-2-6-3v-2l-5-1-1-3-4-1-10-6v-2h-3v-2h-3v-2l-4-1-3-2v-5l3-1v-3l-3 1-2 5-5-1v-2h-3v-2l-5-1-6-5 1-5 3-5 3-7 8-17-74 9-31 3-15 1-55 1-24 12-23 13-72 42-21 12-18 10-23 12-23 10-30 11-29 7-27 5-21 2h-28l-27-3-21-5-19-7-16-8-13-8-14-11-16-16-9-12-7-11-8-15-9-25-5-25-2-18v-20l2-18 4-23 5-17 5-12 8-16 10-16 7-9h2l2-4 10-10 13-10 12-8h2v-2l-12-2-9-3-11-3-8-3-16-3-6-3-10-4-8-6-7-7-6-11-6-14-1-6v-21l10-142 2-22 2-31 3-13 6-11 5-6 11-7 8-3h14l12 2 1 1-2 30-1 14-1 5-13-2-13-3h-8l-4 4-2 7-4 37-2 21v9l4 11 4 4 7 2 12 2 11 3v20l-1 13-2 4-6 3-4-2-3-2h-15l-8 2-3 25-4 33v9l4 9 4 4 49 12 20 4 1 1 8 1v2l13 1 9 3 17 3 9 3 40 9 30 7 22 5v-3l11 2 36 10 5 1h20l10-4h2v-2l6-3 7-7 7-13 3-13 2-18 12-5 11-7 7-8 5-10 3-17 2-20v-9l-8-4-11-4-11-6-2-3 1-6 4-46 3-29 2-28v-19l-4-16-6-11-7-8v-2l-4-2-9-7-12-5-34-6-78-13-5-5-15-25-12-22-10-23-6-17-5-22v-3h26l2-6 2-5-26 1-3 5h-2l-2-11-118-1 1-4h117v-25l4-34 6-26 9-26 4-9 11-21 12-18 14-18 15-16 12-11 13-10 15-10 16-9 14-7 16-6 21-6 19-3z" fill="#5699CF"/>
<path transform="translate(800,305)" d="m0 0h55l64 2 61 3 56 4 77 8 69 9 45 8 36 7 39 9 36 10 36 12 24 10 15 7v2l4 2 6 4 17 10 8 4 12 12 8 13 2 6 1 189v162l-1 89-1 2h-2v6h-1l-6-29-7-24-10-26-9-19-1-3-10 7-7 3-5-1 1-3 12-5 6-4-6-12-13-19-10-13-10-11-7-8-3-3-1-7-3-48-3-12-5-10-7-8-10-6-6-2h-19l-8 2 4 54 2 19 2 38 4 55 3 40v10l-3 17-3 7h-2l-1 7-7 9-9 9-16 7-68 18-57 15-12 3h-3v2l-33 9-11 2-12 3h-17l-12-4-3-2v-2l-6-2-8-9-6-11-3-14-6-63-9-103-2-22-7 7-1 2h-2l-2 4-2 3h-2l1 11 1 14v19l-7 6-4 1v2l-7 3-27 4-12 1-31 3-11 1-2 9-3 6-3 3-22 6-44 10-40 10-25 6-11 2 20 1h35l56-2 44-3 51-5 18-2 8 1 8 4 5 7 2 9 3 49v17l-5 10-8 7-6 2-34 4-43 4-46 3-51 2-62-1-47-2-40-3-10-1-1-1-20-2-19-1-20-3-8-4-6-7-3-7v-11l3-49 1-11 4-8 7-6 2-1h16l15 1-5-21-7-27v-2h-7l-15-3-7-5-6-9v-20l3-54 2-6h2l2-4 4-3h2v-14h2v9l-1 3h12l46 5 38 3h14l10-31h1l-1 18-2 15h13l8 1-1-12 2-12 4-9 4-5h7l4 5 2 8v16l-2 9h19l2-20 2-2 2 17v5h53l35-1-5-14-2-7 3 3 4 5 4 4 4 5 3 2h18l10-1 2-4 8-10 11-12 7-8 11-13 6-7 9-11 3-3 8 1 1 3 2 1 5-4 8-9 4-3 1-3-16-2-15-3-4-2v-9h8l30 6v2l8-1 11-10 2-3h2v-2l-13-2-42-9-5-2-1-1v-7l1-1 9 1 40 8 18 4 4-1 14-14-6-2-4-2h9l19 4 20 7 13 7 14 9 12 11 2 5-1 3 37-6 20-4 21-3 3-2 21-2 29-5-41-9-12-3-2-4v-4l9 1h9l17-4 18-3-52-11-2-5 1-3 11 1 55 11 3 2 10-1 5-1v-3h-2l-7-8-8-4-59-12h-10l-15 16-1 2-1 9h-8l-12 13-7 9-8 5-9 9h-2v3l-7 1-3-1-5-5-10-7-15-8-10-4-9-2-12-4-16-3-17-2-30-1-35-7-5-2-1-2v-6l1-1 11 1 49 10 29 6h8l21-21-78-16-34-7-15-3h-10l-8 5-4 7-1 4v30l2 5v5l-1 1-1 8-12 5h-6l-12-11-11-9-8-7-7-5v-2h-2v-2l-4-2-12-9-14-7-15-5-11-2-22-1v-1h6l-1-43z" fill="#B1E7FD"/>
<path transform="translate(567,201)" d="m0 0h18l23 3 23 6 18 8 15 8 9 6 11 8 14 12 14 14 6 7 12-1-1 5-7 1 14 20 13 23 13 27 6 17 5 13 10 36 7 36 3 21 3 39v10l21 1 15 3 18 7 8 5 12 9 3 2v2h2v2l4 2 10 8 10 9 11 9 3 3h6l11-4 1-8 1-1v-5l-2-5v-30l3-8 5-6 6-3h10l33 7 95 19-6 7-16 16h-8l-83-17h-6v8l40 8 30 1 24 3 19 5 5 2 8 2 16 7 13 8 9 7v2h10v-3l8-7h2l1-3 6-4h2l2-4 12-13 5-6 8 1v-9l7-8 10-11h10l59 12 8 4 7 7v2h2v3l-5 2-10 1-3-2-66-13 1 7 52 11 3 2-15 2-20 4-3 1h-9l-9-2 2 5v3l26 5 28 6-1 2-36 6-14 1-3 2-21 3-20 4-30 5h-7v-5l-9-10-10-7-15-9-14-6-20-6-11-2h-5l7 2-6 7-10 10-12-2-30-6-23-5h-5v7l9 3 48 10 3 1v2l-5 5-10 9h-8v-2l-10-1-20-4-8-1 1 9 11 3 19 3 4 1-1 4-6 5-7 8-5 4-2-5-8-1-10 11-6 8-10 11-7 8-9 10-9 11-6 8-10 2h-18l-7-6-2-5-4-2-4-5 6 15v4l-4 1-31 1h-51l-2-1-3-20-2 20-1 1h-15l-4-1 1-9v-16l-3-9-2-3h-7l-5 7-3 10-1 11v9l-21-1 1-15 1-14-9 27-1 1h-14l-38-3-58-6 1-12h-2v14l-7 5-1 2h-2l-1 6-3 54v20l6 9 2 1v6l-19-3-18-3 1-17 3-35 3-29 2-28v-19l-4-16-6-11-7-8v-2l-4-2-9-7-12-5-34-6-78-13-5-5-15-25-12-22-10-23-6-17-5-22v-3h26l2-6 2-5-26 1-3 5h-2l-2-11-118-1 1-4h117v-25l4-34 6-26 9-26 4-9 11-21 12-18 14-18 15-16 12-11 13-10 15-10 16-9 14-7 16-6 21-6 19-3z" fill="#72D1FC"/>
<path transform="translate(1465,895)" d="m0 0h2l3 24v37l-2 21-4 23-9 29-5 11-9 19-7 10-7 11-2 3h-2l-2 4-5 7h-2l-2 4-11 11-8 7-3 1v2l-5 2v2l-4 1v2l-16 10-17 10-22 10-30 10-17 4h-5l7 9-6 7-5 3-7 8-9 8h-2l-2 4-15 14-3 3-5-2-3-2 4 5-1 4-8 7-4 3-5-1-10-9-11-9-15-13-10-8-5 2-5 1-1 3-13 8-12 11-7 8-4 5-6 13-4 11-2 13v15l3 17 6 18 6 12v2l16 1-3 7-2 6 2 3 247 1v4h-242l5 5 11 10 13 9 11 6 4 2v4l-6-1-17-10-11-8-16-16-12-1v-5l6-1-2-3-19-1 1-5 3-6h7v-3h-2l-4-9-6-16-4-20v-18l3-15 5-14 6-11 8-10 9-9 17-12h3v-2h3v-2l4-2-2-4-15-13-22-18-28-7-23-7-27-8-17-6h-4l-26 36-14 19-13 18-4 1-4-2v-2h-3v-2h-3l-3-3-3-1v-2h-3v-2l-5-2-6-3v-2l-5-1-1-3-4-1-10-6v-2h-3v-2h-3v-2l-4-1-3-2v-5l3-1v-3l-3 1-2 5-5-1v-2h-3v-2l-5-1-6-5 1-5 3-5 3-7 9-18-4-1 4-2h3l1-6 4-10-20-2-15-1h-20l-22 2-31 6-26 8-26 10-12 5-4 2-11-1-23-3-20-4-21-6-19-8-16-8-15-10-9-9-7-10-3-8-1-6v-17l3-13 3-6h16l70 4 78 2h93l69-1 42-2 50-3 7 6-3-4v-2l5-1 38-3 40-4 33-4 12-2 49-7 46-8 48-10 44-11 38-12 24-9 25-11 20-11 11-8 10-9 5-5 6-9z" fill="#082053"/>
<path transform="translate(305,580)" d="m0 0h19l65 11 16 2 5 2 25 3 84 14 12 4 11 7 6 5 10 13 5 11 3 13v19l-4 50-2 21-3 35-1 4 8 5 11 5 11 4 2 2-1 21-3 22-4 10-8 10-11 8-9 4-4 1-3 24-4 11-6 10-8 8-5 1v2l-12 5h-20l-38-10-14-4v3l-10-1-12-3-60-14-18-4-1-1-25-5-1-1-13-2v-2h-8l-1-1-20-4-49-12-5-5-4-9v-9l7-55 1-3 10-3h13l5 4 5-2 3-1 1-3 2-33-11-2-16-3-6-3-5-10-1-4v-9l5-50 2-13 4-6 2-1h8l26 6 2-32 2-22 5-13 7-11 9-8z" fill="#E0F6FB"/>
<path transform="translate(968,633)" d="m0 0 8 1 1 3 2 1-3 5-11 12-9 11-12 14-2 3h-2l-2 4-9 11h-2v2l46-5 7-1h13l8 4 6 8 1 4 2 29-1 2 2 1h-2l1 11 1 14v19l-7 6-4 1v2l-7 3-27 4-12 1-31 3-11 1-2 9-3 6-3 3-22 6-44 10-40 10-25 6-11 2 20 1h35l56-2 44-3 51-5 18-2 8 1 8 4 5 7 2 9 3 49v17l-5 10-8 7-6 2-34 4-43 4-46 3-51 2-62-1-47-2-40-3-10-1-1-1-20-2-19-1-20-3-8-4-6-7-3-7v-11l3-49 1-11 4-8 7-6 2-1h16l15 1-5-21-7-27v-2h-7l-15-3-7-5-6-9v-20l3-54 2-6h2l2-4 4-3h2v-14h2v9l-1 3h12l46 5 38 3h14l10-31h1l-1 18-2 15h13l8 1-1-12 2-12 4-9 4-5h7l4 5 2 8v16l-2 9h19l2-20 2-2 2 17v5h53l35-1-5-14-2-7 3 3 4 5 4 4 4 5 3 2h18l10-1 2-4 8-10 11-12 7-8 11-13 6-7 9-11z" fill="#5B74D1"/>
<path transform="translate(262,968)" d="m0 0 7 1 41 11 46 10 57 10 49 7 51 6 52 5 19 2-1 7-3 14v17l3 11 6 12 4 4 1 3-26 1-4 10 26-1 5-10 8 6 19 12 23 10 23 7 23 5 26 3 4 1-8 5-19 10-11 6-15 8-15 9-53 31-21 12-18 10-23 12-23 10-30 11-29 7-27 5-21 2h-28l-27-3-21-5-19-7-16-8-13-8-14-11-16-16-9-12-7-11-8-15-9-25-5-25-2-18v-20l2-18 4-23 5-17 5-12 8-16 10-16 7-9h2l2-4z" fill="#082053"/>
<path transform="translate(1263,596)" d="m0 0h20l8 4 9 6 7 8 5 11v8l2 2 2 19 2 30 1 25 3 28 7 96v23l-4 13-5 10-12 13-10 6-15 5-38 10-50 13-18 5-10 2v2l-10 2h-3l-30 8-25 7-5 1h-10l-16-4-1-3-5-2-7-7-6-15-3-21-6-67-7-76-3-32v-7l3-4h2l2-4 5-6h2l2-4 15-16 9-11 13-14 9-11 7-7 1-2h2l2-4 9-9 1-2h2l1-4 12-3 67-11 8-1h13l22 5 20 4h9l-1-5-22-5-12-2v-2z" fill="#72D0FC"/>
<path transform="translate(718,277)" d="m0 0 4 1 14 20 13 23 13 27 6 17 5 13 10 36 7 36 3 21 3 39v10l-1 1-19 3-38 9h-3l4 20v9l-1 8-4 8-6 9-10 8-13 5h-16l-13-4-10-8-3-3v-2h-2l-5-10-4-15v-5l-60 14-22 8-16 9-11 8h-5l-17-11-16-12-17-17-13-18-8-17-5-15-2-15v-19l3-17 6-20 10-19 7-11 13-16 9-10 15-15 13-10 14-10 18-11 16-9 29-13 26-10 21-7 23-6z" fill="#082053"/>
<path transform="translate(567,201)" d="m0 0h18l23 3 23 6 18 8 15 8 9 6 11 8 14 12 14 14 5 6v3l-31 6-36 10-28 10-25 11-17 8-23 13-15 10-17 13-17 16-15 16-7 10-10 15-10 21-5 15-2 9-1 10v22l4 20 5 13 9 17 14 18 11 11 11 9 10 7 9 6v1h-9l-60-7-55-8-10-2-10-17-11-21-8-20-5-14-5-22v-3h26l2-6 2-5-26 1-3 5h-2l-2-11-118-1 1-4h117v-25l4-34 6-26 9-26 4-9 11-21 12-18 14-18 15-16 12-11 13-10 15-10 16-9 14-7 16-6 21-6 19-3z" fill="#082053"/>
<path transform="translate(243,620)" d="m0 0h14l12 2 1 1-2 30-1 14-1 5-13-2-13-3h-8l-4 4-2 7-4 37-2 21v9l4 11 4 4 7 2 12 2 11 3v20l-1 13-2 4-6 3-4-2-3-2h-15l-8 2-3 25-4 33v9l4 9 4 4 49 12 20 4 1 1 8 1v2l13 1 9 3 17 3 9 3 40 9 30 7 22 5v-3l11 2 36 10 5 1h20l10-4h2v-2l6-3 7-7 7-13 3-13 2-18 12-5 11-7 7-8 5-10 3-17 2-20v-9l-8-4-11-4-11-6-2-3h9l27 5 2 1v-5l7 3 19 3 4 13 8 31 1 7-16-1h-16l-6 4-4 5-2 5-3 46-1 14v11l5 10 6 5 9 3 16 2 28 2 11 1 1 1 33 3 17 1 3 2-11 1-2 1-6-1 1 3 5 5 11 8 16 8 13 4 14 3 17 4 33 7 29 7 34 8 6 2 13 1v1l-41 1h-93l-78-2-70-4h-16l-4 12-1 6v17l3 12 6 9 9 10 11 8 10 6 22 10 21 7 21 5 21 3 15 2 8-1 8-4 28-11 22-7 26-6 21-3 13-1h20l24 2 11 2-1 6-4 10-5 2 2 1-1 2h-9l-65 8-31 3-15 1h-54l-3-1-26-3-27-6-24-8-20-9-17-11-7-6-4 6-2 4h-26l1-6 3-5 25-1-1-4-4-2-7-14-2-9v-17l3-14 2-7-19-1-62-6-71-9-60-10-44-9-30-7-32-9-3-2 11-10 14-10 6-4h2v-2l-12-2-9-3-11-3-8-3-16-3-6-3-10-4-8-6-7-7-6-11-6-14-1-6v-21l10-142 2-22 2-31 3-13 6-11 5-6 11-7z" fill="#4A8BB9"/>
<path transform="translate(986,848)" d="m0 0 8 1 8 4 5 7 2 9 3 49v17l-5 10-8 7-6 2-34 4-43 4-46 3-51 2-62-1-47-2-40-3-10-1-1-1-20-2-19-1-20-3-8-4-6-7-3-7v-11l3-49 1-11 4-8 7-6 2-1h16l9 1v2h10l57 5 31 2 50 2h78v-2l54-3 54-5z" fill="#F9FBFC"/>
<path transform="translate(133,477)" d="m0 0 4 2 11 11 13 10 16 10 16 8 16 7 12 5 28 10 42 12 42 10 55 11h5l2-3 12 20 2 4 14 2v1l-13-1-7-2-43-7-36-6h-19l-14 6-8 7-7 11-5 13-1 5-13-2h-14l-10 4-9 6-7 10-4 9-2 10-3 46-2 21-9 128v21l2 9 7 15 6 9 7 7 11 6 9 3 7 2 17 4 8 3 11 3 14 4v2l-11 7-13 10-10 9-1-2-6-1-27-9-25-10-27-13-16-10-14-12-10-12-5-10-2-10v-391l1-10z" fill="#B1E7FD"/>
<path transform="translate(1263,596)" d="m0 0h20l8 4 9 6 7 8 5 11v8l2 2 2 19 2 30v13l-27 6-52 11-50 11-42 9-45 10h-2l1 7 1 17 3 31 6 68 5 59 1 10v11l-23 6h-10l-16-4-1-3-5-2-7-7-6-15-3-21-6-67-7-76-3-32v-7l3-4h2l2-4 5-6h2l2-4 15-16 9-11 13-14 9-11 7-7 1-2h2l2-4 9-9 1-2h2l1-4 12-3 67-11 8-1h13l22 5 20 4h9l-1-5-22-5-12-2v-2z" fill="#4A8BB9"/>
<path transform="translate(1465,895)" d="m0 0h2l3 24v37l-2 21-4 23-9 29-5 11-9 19-7 10-7 11-2 3h-2l-2 4-5 7h-2l-2 4-11 11-8 7-3 1v2l-5 2v2l-4 1v2l-16 10-17 10-22 10-30 10-17 4h-7l-7-8-2-4 15-10 10-8 6-5 10-13 2-10-2-8-6-10-7-7-14-7-8-2-12 1-21 8-21 7-10 1-14-14-7-8-9-10-7-8-1-3h-2l-7-8-12-13-14-15-4-7 1-1 46-6 47-8 55-11 48-12 38-12 24-9 25-11 20-11 11-8 10-9 5-5 6-9z" fill="#082053"/>
<path transform="translate(1126,1009)" d="m0 0 3 1 7 9 14 15 10 11v2l4 2 1 3h2l7 8 9 10 7 8 9 10 6 6 10-1 21-7 21-8 12-1 13 4 10 6 8 8 6 11 1 9-3 9-12 14-14 11-14 9 2 4 6 6v2h2l7 9-6 7-5 3-7 8-9 8h-2l-2 4-15 14-3 3-5-2-3-2 4 5-1 4-8 7-4 3-5-1-10-9-11-9-15-13-10-8-5 2-5 1-1 3-13 8-12 11-7 8-4 5-6 13-4 11-2 13v15l3 17 6 18 6 12v2l16 1-3 7-2 6 2 3 247 1v4h-242l5 5 11 10 13 9 11 6 4 2v4l-6-1-17-10-11-8-16-16-12-1v-5l6-1-2-3-19-1 1-5 3-6h7v-3h-2l-4-9-6-16-4-20v-18l3-15 5-14 6-11 8-10 9-9 17-12h3v-2h3v-2l4-2-2-4-15-13-22-18-4-2v-2l-13-11-2-1v-2l-4-2-11-9-14-12-10-9-6-5-15-1 1-4 5-2-7-9-7-4-5-5-12-11-9-7-8-7-7-6-31-8 1 4h-2l-2 4-3 1 3-9-15-4-16-2-34-8-4-1h-145l-65-2v-1h32l42 1h93l69-1 42-2 50-3 7 6-3-4v-2l5-1 38-3 40-4z" fill="#24438D"/>
<path transform="translate(414,600)" d="m0 0 37 6 66 11-2 5-6 8-9 17-5 16-2 7-4 19v40l-3 33v32l-2 3-1 10h-2l-1 31-2 22 23 12 19 10 9 3 12 1 1 3-2 19-4 12-7 10-7 6-11 5-4 1h-15l-21-5-15-4-13-4 5-55v-20l-4-8-4-3-104-24-56-13-10-1-3 1-5-1v-23l1-13 4-1 30 7 61 13 58 12 28 6h9l4-6 2-17 3-43v-14l-3-9-4-5-66-14-69-14-28-6-21-4v-14l3-36 11 1 71 13 51 9 37 7h4l-12-19-19-29-3-4z" fill="#0F84DD"/>
<path transform="translate(1327,631)" d="m0 0h19l10 4 9 7 6 8 4 8 3 12 3 48 1 7 4 59 1 21h3v-2l5 1 1 4-5 5-2-1 1 28 2 28v18l-3 12-4 11-9 12-9 8-9 5-90 25-7 2-11 3-5 2-16 4-61 17h-18l-10-3-5-3v-2l-4-1v-2h-2l-5-7-5-12 1-5 30-8h3v-2l64-17 42-11 37-10 14-7 10-10 5-8 1-5h2l4-16 1-8v-10l-6-80-2-33-2-31-4-45-1-17 3-2z" fill="#72D1FC"/>
<path transform="translate(963,388)" d="m0 0 5 1 26 11h2l2-4 10-4h12l42 8 29 6 13 2 80 15 23 5 2 3-5 1v2l-6 3-7 6-9 6h-2v2l-15 11-8 6-10 8-21 21-10 9-33 33-36-7-65-13-3-2h2v-93l3-13 6-8 2-1-29-13z" fill="#74D0FB"/>
<path transform="translate(270,662)" d="m0 0h1v12l12 1 34 7 28 6 35 7 32 7 43 9 6 8 2 7v14l-4 55-3 9-3 3h-9l-147-31-30-7-3-1 2-48z" fill="#72D1FC"/>
<path transform="translate(1382,726)" d="m0 0 7 6 10 11 13 17 9 13 8 13 2 5-11 7-8 3v2l7-1 10-6 4-2 8 16 8 18 10 30 6 26 1 11-6 10-5 6-8 7-12 9-16 9-16 8-21 9-25 9-36 11-44 11-60 12-50 8-38 5-3-1-5-3-7-8-8-9-5-4v-2l-3-1v-2l-4-2-7-7-2-1v-2l-4-2-1-3h-2v-2l-5-2-3-3 10 2h17l21-5 3 8 8 16h2v2l4 1v2l5 2 10 3h18l54-15 23-6 16-5 7-2 90-25 10-6 9-8 9-14 4-13 1-6v-18l-2-28-1-29 4 1 3-5v-3l-5-1v2h-3l-3-35-2-27z" fill="#4A8BB9"/>
<path transform="translate(243,620)" d="m0 0h14l12 2 1 1-2 30-1 14-1 5-13-2-13-3h-8l-4 4-2 7-4 37-2 21v9l4 11 4 4 7 2 12 2 11 3v20l-1 13-2 4-6 3-4-2-3-2h-15l-8 2-3 25-4 33v9l4 9 4 4 49 12 20 4 1 1 8 1v2l13 1 9 3 17 3 9 3 40 9 30 7 22 5v-3l11 2 19 5 3 4-8 16-8 9-11 6-6 2h-16l-27-7-16-5-16-4-50-14-15-5-16-4-18-5-8-3-16-3-6-3-10-4-8-6-7-7-6-11-6-14-1-6v-21l10-142 2-22 2-31 3-13 6-11 5-6 11-7z" fill="#1084DD"/>
<path transform="translate(1126,1009)" d="m0 0 3 1 7 9 14 15 10 11v2l4 2 1 3h2l7 8 9 10 7 8 9 10 6 6 10-1 21-7 21-8 12-1 13 4 10 6 8 8 6 11 1 9-3 9-4 3 2-5 2-4v-9l-4-10-9-10-10-6-5-2-6-1h-9l-10 3-15 6-23 7-22 4-21 2h-121l-6 2-1 2h14v1h-16l1-4 5-2-7-9-7-4-5-5-12-11-9-7-8-7-7-6-31-8 1 4h-2l-2 4-3 1 3-9-15-4-16-2-34-8-4-1h-145l-65-2v-1h32l42 1h93l69-1 42-2 50-3 7 6-3-4v-2l5-1 38-3 40-4z" fill="#24438D"/>
<path transform="translate(1216,431)" d="m0 0h17l3 16 6 17 7 21 2 8-3 6-5 4-4 3h-2l-1 3-6 1-10 8-16 9-4 2-2 4-12 13-2 3-1 9h-8l-12 13-7 9-8 5-9 9h-2v3l-7 1-3-1-5-5-10-7-15-8-10-4-9-2-12-4-16-3-17-2-30-1-35-7-5-2-1-2v-6l1-1 11 1 49 10 29 6h8l21-21 8-7 24-24h2l2-4 10-9 23-23 9-7 17-12 4-2v-2l11-7 15-8z" fill="#F8B1B0"/>
<path transform="translate(261,796)" d="m0 0h1l1 9h6v-1l11 1 90 21 57 13 15 4 6 8 1 3v20l-5 51-1 4 3 1h-4v-2l-7-1-15-4-7-1-9-3-64-17-15-3v-2l-12-1-3-1v-2l-7-1-13-4-14-9-4-4v-3l-3-1-3-7-5-13-2-11 1-26z" fill="#72D1FC"/>
<path transform="translate(648,398)" d="m0 0 1 2h-2l-2 5-2 6-1 8v23l1 4 9 2 3-4 3-10 5-5 10-3 10-4 34-11 7-3 4-1h10l5 5 5 12 4 12v8l-4 6-4 3-3 1 6 22 1 15-3 11-4 6-7 6-9 3-4 2 6 17 3 22-2 10-3 8h-2l-2 4-7 6-9 4-10 1-11-2-9-6-8-9-3-7-5-21-7-40-2-6-2-1-9-1-9-6-1-4h-2l-3-7v-14l3-7 6-6h2l1-37 3-12 5-5z" fill="#F7B1B0"/>
<path transform="translate(944,512)" d="m0 0h10l33 7 95 19-6 7-16 16h-8l-83-17h-6v8l40 8 30 1 24 3 19 5 5 2 8 2 16 7 13 8 9 7v2h10v-3l8-7h2l1-3 6-4h2l2-4 12-13 5-6 8 1v-9l7-8 10-11h10l59 12 8 4 7 7v2h2v3l-5 2-10 1-3-2-66-13 1 7 52 11 3 2-15 2-20 4-3 1h-9l-9-2 2 5v3l26 5 28 6-1 2-36 6-14 1-3 2-21 3-20 4-30 5h-7v-5l-9-10-10-7-15-9-14-6-20-6-11-2h-5l7 2-6 7-10 10-12-2-30-6-23-5h-5v7l9 3 48 10 3 1v2l-43 3-43 2-6-5v-14l-8 3h-6l-1-3 14-5 1-8 1-1v-5l-2-5v-30l3-8 5-6z" fill="#0C7BD3"/>
<path transform="translate(1309,635)" d="m0 0h5l2 19 2 30v13l-27 6-52 11-50 11-42 9-45 10-3-1-1-9v-20l3-11 6-12 10-13 10-7 11-5 31-6 34-6 10-2 19-3 24-5 26-4z" fill="#0E83DD"/>
<path transform="translate(1024,725)" d="m0 0 2 1 9 101 4 46 4 41 4 16 7 12 6 7-4-2-6-5-1 2-5 2-10 5-8 1h-14l-2-1-11 1 5-5 4-5 3-7v-17l-3-49-2-9-4-6-8-4-8-1-57 6-39 3-39 2-34 1h-35l-22-1 2-2 15-3 70-17 39-9 18-5 3-3 3-8 1-7 36-3 15-2 20-2 11-2 7-2v-2l8-5 2-2v-19l-1-20v-5h2l2-4 2-3h2l2-4z" fill="#4A8BBA"/>
<path transform="translate(869,1183)" d="m0 0 4 2 12 11 6 5 7 8 8 7 12 11 2 1v2l4 2 8 6v2l3 1-2 5-3 8-1 6v11l3 12 9 16 13 16 11 13 7 11 1 3v13l-4 10-4 6-3 4h-3l-1 3-6 1-8-7-10-9-48-44-10-9-9-7-6-7-8-7-13-12-8-7-15-14-1-1 1-7 9-10 10-14 8-10 1-2h2l2-4 11-14 7-9z" fill="#74D1FC"/>
<path transform="translate(1406,1189)" d="m0 0h12l10 4 9 8 6 11v5l-6 2v2l-16 11-20 14-12 8-5 5-9 5-15 11-16 11-6 4h-2v2l-19 13-18 13-6 4h-5l-7-8-9-11v-2h-2l-3-4v-2h-2l-8-10-14-17-10-12 5-5 20-14 14-10 15-11 13-10 5-3 8 6 10 5 3 1h18l12-3 17-7 24-13z" fill="#73D1FC"/>
<path transform="translate(920,1068)" d="m0 0 13 1 11 2v-2l4-1v4l12 2 23 5 17 9 16 8 19 9 3 3-1 5-8 10-4 6-3 5-5 5-10 14-13 18-14 19-13 18-4 1-4-2v-2h-3v-2h-3l-3-3-3-1v-2h-3v-2l-5-2-6-3v-2l-5-1-1-3-4-1-10-6v-2h-3v-2h-3v-2l-4-1-3-2v-5l3-1v-3l-3 1-2 5-5-1v-2h-3v-2l-5-1-6-5 1-5 3-5 3-7 9-18-4-1 4-2h3l1-6 5-11 8-16z" fill="#24438D"/>
<path transform="translate(359,460)" d="m0 0 96 1 1 1 1 32 4 18 7 16 6 11 5 5 10 13 12 12 11 9 10 7 9 6v1h-9l-60-7-55-8-10-2-10-17-11-21-8-20-5-14-5-22v-3h26l2-6 2-5-26 1-3 5h-2v-12z" fill="#082053"/>
<path transform="translate(619,800)" d="m0 0 36 3 55 4 46 2h87l43-2 24-1 1 1-1 9-3 6-3 3-22 6-44 10-40 10-25 6-11 2 20 1h69v1l-25 1h-53l-67-3-50-4-31-3v-1l6-1-5-21-7-27z" fill="#74D1FC"/>
<path transform="translate(1038,567)" d="m0 0h9l19 4 20 7 13 7 14 9 12 11 2 5-1 3h7v1l-57 9-15 4-11 6-9 7-9 12-5 11-4 14v14l1 5 2 27 1 2v12h-1l-1-11-7 7-1 2h-2l-2 4-4 2-2-31-3-7-4-5-7-3h-13l-34 4-19 1v-2l5-5 8-10h2l2-4 13-15 9-11 16-17 10-11 4-3 1-3-16-2-15-3-4-2v-9h8l30 6v2l8-1 11-10 2-3h2v-2l-13-2-42-9-5-2-1-1v-7l1-1 9 1 40 8 18 4 4-1 14-14-6-2z" fill="#A9C7DF"/>
<path transform="translate(1279,424)" d="m0 0 5 1v9l9 11 5 5 5 3 7 8 3 3 5 11 2 7v27l-2 24-3 48-2 30-4-2-7-8-9-6-10-3v-2h-10l-3-1-2-4-27-6-24-5 3-2 17-4 18-3-52-11-2-5 1-3 11 1 55 11 3 2 10-1 5-1v-3h-2l-7-8-8-4-59-12-10-1 5-5 18-10 9-7h4l3-3 8-3 4-5 1-6-3-7-2-5v-4h6l8 16v2l5-5 5-6 1-9-7-3v-2l-5-1-10-9v-2h-2l-8-11-2-4 5 3 9 10 2-1 2-5 4-2v-4h8l7 1v-5l-9 1-1-3 7-2 3-1 2 1 1-5h3v-2l-2-1z" fill="#72D1FC"/>
<path transform="translate(1202,571)" d="m0 0 9 1 54 11 5 3v3l13 1v2l10 2 6 4 10 9 3 7 5 12 2 10 4 52 2 19 2 38 4 55 3 40v10l-3 17-3 7h-2l-1 7-7 9-9 9-16 7-68 18-57 15-12 3h-3v2l-33 9-11 2-12 3h-17l-12-4-3-2v-2l-6-2-8-9-6-11-3-14-6-63-9-103-1-23-1-5-2-24-1-5v-14l5-17 6-11 9-11 11-8 8-4 15-4 49-8h8v-2l34-6 24-4 13-2 3-2 21-2 29-5-41-9-12-3-2-4zm61 25-30 5v2l31 6 3 1 1 5h-9l-39-8-3-1h-13l-50 8-30 5-7 2-1 4h-2l-7 8-5 5v2h-2l-7 8-9 10-7 8-12 14-12 13-7 8-2 4h-2l-7 8v2l-4 2-1 2 1 16 8 90 6 64 3 28 4 13 3 7 7 7 5 2 1 3 16 4h10l23-6 37-10h3l10-2v-2l10-2 60-16 38-10 18-5 12-6 10-9 8-11 5-13 1-5v-23l-7-96-3-28-2-42-2-26-2-7-1-1v-8l-6-12-7-8-13-8-3-1z" fill="#DFF4FA"/>
<path transform="translate(640,958)" d="m0 0 20 1 33 3 17 1 3 2-11 1-2 1-6-1 1 3 5 5 11 8 16 8 13 4 14 3 17 4 33 7 29 7 34 8 6 2 13 1v1l-41 1h-93l-78-2-85-5-1-2 9-17 8-11 3-4h2l2-4 7-8 8-5 3-3 7-6h2z" fill="#4A8AB9"/>
<path transform="translate(517,617)" d="m0 0 12 3 10 6 5 4v2l3 1 6 9 6 17 1 5v26l-9 97-1 6-16-8-29-13-12-6-7-2v6h-1l1-18 2-23v-40l5-25 3-8 5-13 8-15z" fill="#72D1FC"/>
<path transform="translate(1263,596)" d="m0 0h20l8 4 9 6 7 8 5 11v8l1 2-48 9-12 2-28 5-12 2-16 3-55 10-13 5-9 6-9-1-34-7v-3l13-14 7-8 3-4h2l2-4 9-9 1-2h2l1-4 12-3 67-11 8-1h13l22 5 20 4h9l-1-5-22-5-12-2v-2z" fill="#48AEEB"/>
<path transform="translate(878,466)" d="m0 0h17l42 8 42 9 2 2v32h-7l-20-4h-10l-8 5-4 7-1 4v30l2 5v5l-1 1-1 8-12 5h-6l-12-11-11-9-8-7-7-5v-2h-2v-2l-4-2-11-8-6-18-2-8v-14l4-13 4-6 8-7 8-4z" fill="#B1E7FD"/>
<path transform="translate(1046,831)" d="m0 0 48 2 13 1 1-3 8 95 1 10v11l-23 6h-10l-16-4-1-3-5-2-7-7-6-15-3-21-3-34v-14l-1-19z" fill="#569AD0"/>
<path transform="translate(306,584)" d="m0 0h16l60 10 31 5 3 1h-2l21 32 12 19 2 4-9-1-51-9-115-21 2-12 6-11 7-8 9-6z" fill="#B1E7FD"/>
<path transform="translate(486,764)" d="m0 0 7 1 16 8 34 15 6 4 2-4v10l-7 77-1 14-2-2-12-1-13-5-35-18-4-4 2-21 2-31h2v-10l2-3v-24z" fill="#A8C7DF"/>
<path transform="translate(648,398)" d="m0 0 1 2h-2l-2 5-2 6-1 8v23l1 4 9 2 3-4 3-10 5-5 10-3 10-4 34-11 7-3 4-1h10l5 5 5 12 4 12v8l-4 6-4 3-11 4-25 9-18 6-12 3-8-1-5-4v17l-4 8-5 5-5 2-3-3-9-1-9-6-1-4h-2l-3-7v-14l3-7 6-6h2l1-37 3-12 5-5z" fill="#73D1FC"/>
<path transform="translate(344,916)" d="m0 0h7l44 10 21 5 22 5v-3l11 2 19 5 3 4-8 16-8 9-11 6-6 2h-16l-27-7-16-5-16-4-50-14-15-5 1-2 11-6 9-5 14-7 5-2 1-3z" fill="#097AD3"/>
<path transform="translate(1200,530)" d="m0 0h10l59 12 8 4 7 7v2h2v3l-5 2-10 1-3-2-66-13 1 7 52 11 3 2-15 2-20 4-3 1h-9l-9-2 2 5v3l26 5 28 6-1 2-36 6-14 1-3 2-21 3-20 4-30 5h-7v-5l-9-10-1-4-8-6-7-5-3-3-14-7 3-1 18 8 13 8 9 7v2h10v-3l8-7h2l1-3 6-4h2l2-4 12-13 5-6 8 1v-9l7-8z" fill="#5A74D0"/>
<path transform="translate(1037,425)" d="m0 0h18l15 5 8 5 1 3-3 5h-2l-2 5-4 6-2 5-5 6-5 8 1 3 37 19 4 4-6 11-9 8-9 4-3 1h-15l-10-3-10-5-7-6-3-1-7-10-7-14-2-8v-20l4-11 6-8 5-6z" fill="#FDFDFD"/>
<path transform="translate(937,1039)" d="m0 0 10 1 11 3-4 10 5-5 1-4 7 1 24 6 9 8 4 3v2l5 2 11 10 11 9 5 5 4 2 6 7v2l-5 3-1 3h15l12 11 11 9 10 9 9 7 3 2v2l4 2 14 11v1h-7l-20-5-23-7-27-8-19-7-1-2h2l2-4 9-13 3-3-1-5-16-8-17-9-16-8-7-3-20-4-8-1-4-2v-4l-4 1v2l-11-1-13-2 2-1 3-9 8-18z" fill="#1B2E71"/>
<path transform="translate(256,800)" d="m0 0h1v12l-1 11v21l3 12 5 12 6 8 1 3 4 4 9 5 1 3 9 3 29 8 26 7 42 11 26 7 17 4v2l4 1v2l-10-1-12-3-60-14-18-4-1-1-25-5-1-1-13-2v-2h-8l-1-1-20-4-49-12-5-5-4-9v-9l7-55 1-3 10-3h13l5 4 5-2 3-1z" fill="#72D0FB"/>
<path transform="translate(1194,780)" d="m0 0h12l3 3 4 44 5 63v13l-5 3-23 6h-9l-2-3-8-95-1-12v-13l1-3 21-5z" fill="#5A74D0"/>
<path transform="translate(1267,594)" d="m0 0h13l11 4 9 6 8 9 5 11 1 11-3-2v-8l-6-12-1-3-3-1-5-5-10-6-3-1h-20l-23 4h-7v2h7l24 5 4 2 1 5-1 1h-9l-39-8-3-1h-13l-50 8-30 5-7 1-1 4h-2l-2 4-9 9-1 2h-2l-2 4-13 14-7 8-12 14-12 13-7 8-3 4h-2l-2 4-5 6-5 4-2-6-1-26v-14l5-15 8-12 10-10 8-5 5-2 12-2h5v-2l38-6 14-3 39-6 37-6 15-2 31-6z" fill="#A9C7DF"/>
<path transform="translate(1263,596)" d="m0 0h20l8 4 9 6 7 8 5 11v8l1 2-48 9-12 2-28 5h-7l-14-3-1-1 1-23v-18h13l22 5 20 4h9l-1-5-22-5-12-2v-2z" fill="#66ABE0"/>
<path transform="translate(414,600)" d="m0 0 37 6 66 11-2 5-6 8-9 17-5 16-2 7-4 19-1 7h-1v-7h-2l-10-16-7-7-10-6-6-3-6-1 2-2-12-19-19-29-3-4z" fill="#4A8BB9"/>
<path transform="translate(477,860)" d="m0 0 16 8 27 14 9 3 12 1 1 3-2 19-4 12-7 10-7 6-11 5-4 1h-15l-21-5v-10l4-43z" fill="#4A8BB9"/>
<path transform="translate(726,272)" d="m0 0h4l-1 5-16 2-30 6-26 7-29 10-31 13-16 8-17 9-24 16-14 11-10 9-14 14-11 14-8 11-10 18-5 12-6 23-1 8v19l2 15 6 18 9 17 9 12 9 10 11 11 14 10 17 11 4 2-10 8-5 5-4 6-4 1-108-18-5-5-6-10-2-5 9 1 55 8 60 7h8l-17-11-10-9-8-7-9-9-6-8-9-14-8-17-4-14-2-12v-22l2-14 3-11 6-16 10-19 9-13 8-10 16-17 16-15 15-11 15-10 17-10 23-11 25-11 28-10 28-8 22-5 12-2h5l1-2z" fill="#4A8BBA"/>
<path transform="translate(706,364)" d="m0 0h12l7 4 4 5 1 5v9l-4 17 1 3-5 3-36 12-11 4-7 3-6 2-4 5-3 10-4 3-9-3-1-4v-23l2-11 4-8 5-2 1-3 7-4 11-7h2v-2l15-10 14-7z" fill="#050F42"/>
<path transform="translate(232,666)" d="m0 0h8l26 6v-5h1l-1 20h-2v11l-5 78h-1v-9l-11-2-16-3-6-3-5-10-1-4v-9l5-50 2-13 4-6z" fill="#72D1FC"/>
<path transform="translate(1260,1084)" d="m0 0h11l11 4 10 8 5 6 4 4 1 10-3 6-10 12-7 6-5 2-15 10-5 1-15-16-7-8-11-12-7-8-5-6 1-3 21-6 23-9z" fill="#082053"/>
<path transform="translate(973,829)" d="m0 0h13l14 1 33 1 1 5 1 20 2 16v9l-4 1h-9l-10-1-4-1-1-16-1-3-9-9-8-3-14 1-48 5-19 1v-2l-4 1-12-1-4-1-10 1-7 2h-6l-2-4 18-3 6-2 13-2 15-4 45-9 5-2z" fill="#5599CF"/>
<path transform="translate(1100,770)" d="m0 0h2l2 17 3 33v14h-13l-48-2-3 2 1 27h-1l-2-17-4-42v-4l9-4 20-8 23-10z" fill="#4A8BB9"/>
<path transform="translate(848,1096)" d="m0 0h20l24 2 11 2-1 6-5 9-28 4-61 7-23 2-18 1h-35l1-3 33-13 22-7 26-6 21-3z" fill="#F6F8FB"/>
<path transform="translate(1317,728)" d="m0 0h4l3 38 5 67v23l-4 13-5 10h-9l-2-4-8-105-2-26v-9l2-3z" fill="#0F83DD"/>
<path transform="translate(1327,631)" d="m0 0h19l10 4 9 7 6 8 4 8 3 12v14l-51 11-4 1-4-45-1-17 3-2z" fill="#0F84DD"/>
<path transform="translate(1266,815)" d="m0 0h10v2h2l1 2 3 52 1 13-5 5-10 2v2l-12 2h-8l-3-4-3-35-2-23-1-6 1-4 8-4z" fill="#F1FDFD"/>
<path transform="translate(1084,572)" d="m0 0 5 1 16 7 13 8 9 7v2h10v-3l8-7h2l1-3 7-4h11l27-4 10-1 1 4 26 5 28 6-1 2-36 6-14 1-3 2-21 3-20 4-30 5h-7v-5l-9-10-1-4-8-6-7-5-3-3-14-7z" fill="#4AAEEB"/>
<path transform="translate(725,644)" d="m0 0h7l25 5 26 5-1 22-2 21-1 8-1 1h-15l-4-1 1-9v-16l-3-9-2-3h-7l-5 7-3 10-1 11v9l-21-1 1-15 4-32z" fill="#B1E6FD"/>
<path transform="translate(555,794)" d="m0 0 16 8 15 6 2 2-1 21-3 22-4 10-8 10-11 8-9 4-4 1-2 18h-1v-11l6-60 3-34z" fill="#A9C7DF"/>
<path transform="translate(1034,840)" d="m0 0h2l6 65 3 19 4 10 7 10 4 5-4-2-6-5-1 2-5 2-10 5-8 1h-14l-2-1-11 1 5-5 4-5 3-7v-17l-3-49-1-9 2 1 1 3v16l4-1v2h23l-3-25z" fill="#4A8BB9"/>
<path transform="translate(832,1230)" d="m0 0 4 1 4 5 2 4v10l-2 6h-2l2 5 5 5 6 5v2l3 1v2l4 2 5 4 5 5 9 8v2l4 2 5 5 12 10 5 5 5 4 5 5 7 6 5 5 6 5v2h2l5 5 7 6 5 5 5 4v2l3 1v2l3 1-2 5-3 2-6-1-7-7-8-7-13-12-36-33-10-9-9-7-6-7-8-7-13-12-8-7-15-14-1-1 1-7 9-10z" fill="#24428A"/>
<path transform="translate(1437,1206)" d="m0 0 4 2 2 4v5l-6 2v2l-16 11-20 14-12 8-5 5-9 5-15 11-16 11-6 4h-2v2l-19 13-18 13-6 4h-5l-7-8-10-13v-2l7-4h12l8 4 2 2 4-1 17-12 12-9h3v-2l5-3h2v-2l11-7 16-12 15-10h2v-2l15-10h2v-2h3v-2l8-5h2v-2l4-3h3v-2l12-8z" fill="#25438C"/>
<path transform="translate(648,398)" d="m0 0 1 2h-2l-2 5-2 6-1 8v23l1 4 9 2 3-4 3-10 5-5 3 1-2 5-1 11h2l2 9 5 11 4 5 5 2-3 2-8-1-5-4v17l-4 8-5 5-5 2-3-3-9-1-9-6-1-4h-2l-3-7v-14l3-7 6-6h2l1-37 3-12 5-5z" fill="#27478F"/>
<path transform="translate(756,577)" d="m0 0h8l8 7 6 12 5 18 1 7v18l-1-2-10-1-13-3-26-4-6-2 1-9 4-11 7-13 10-13z" fill="#4A8BBA"/>
<path transform="translate(612,762)" d="m0 0 10 1 49 7 36 4 39 3 22 1h85l31-2 28-3 32-5 29-6 4 2-2 4-15 4-33 6-32 4-22 2-19 1-34 1h-21l-53-2-39-3-29-3-39-5-27-5-1-4z" fill="#B0DFF6"/>
<path transform="translate(1096,427)" d="m0 0 4 2 10 12 6 9 5 13 2 13v11l-3 12-5-1-8-4-15-8-13-7-11-6 1-5 6-9 3-6h2l1-5h2l1-4 3-5h2v-3h2l1-5h2v-3z" fill="#5A75D0"/>
<path transform="translate(612,724)" d="m0 0 11 1 42 6 35 4 51 4 21 1h76l34-2 36-4 35-6 18-4h5l1 4-1 2-27 6-29 5-40 4-32 2h-76l-52-3-49-5-49-7-9-2-2-2z" fill="#ADD8EF"/>
<path transform="translate(476,851)" d="m0 0h1v21l-4 44-2 20-12-2-16-5 5-55 1-4 1-15 2 3 3-3h3v-2h7l4 3 5 1 1-4z" fill="#097AD4"/>
<path transform="translate(877,1156)" d="m0 0 8 4v2h3v2h3v2l5 1v2h3v2h3v2l4 1 12 8 7 4v2l5 1 1 3h3v2l5 1 3 3 3 1v2l6 2 2 1v2l4 1 6 4-1 4-4 5-1 3h-2v2h-2v2l-5-1-12-7-13-8-42-26-13-9 1-5z" fill="#26458F"/>
<path transform="translate(1040,1107)" d="m0 0h15l12 11 11 9 10 9 9 7 3 2v2l4 2 14 11v1h-7l-20-5-23-7-27-8-19-7-1-2h2l2-4 9-13 4-4z" fill="#081F53"/>
<path transform="translate(1287,599)" d="m0 0 5 2 7 4 8 9 5 11v8l1 2-48 9-12 2-28 5h-7l-14-3-1-1 1-23 10 1 12 3 24 5 13 2 10-1 8-5 3-5 2-8z" fill="#71D1FC"/>
<path transform="translate(724,408)" d="m0 0 6 1 8 1 5 5 5 17v7h-1l-4-16-2-5-10 3-40 14-3 5h-3v-3h-3l-1 5-3-2v-2h-2l3 11 5 10 4 2 10-2 40-14 8-4-1 3-10 5-19 7 6-1v2l12-3 7-2-1 3-18 6-22 8-17 5-7-2-6-7-5-13v-6h-2v-11l2-5 4-3 17-6 31-10z" fill="#6EC4F1"/>
<path transform="translate(612,877)" d="m0 0 11 1 40 6 34 4 50 4 22 1h82l43-3 39-5 39-8h4l-1 5-27 6-31 5-39 4-35 2h-63l-40-2-49-4-49-6-29-5z" fill="#5772CD"/>
<path transform="translate(1202,546)" d="m0 0 11 1 55 11 3 2 10-1 5-1 3 6v17l-1 10-15-1-3-1-2-4-27-6-24-5 3-2 17-4 18-3-52-11-2-5z" fill="#66ABE0"/>
<path transform="translate(612,915)" d="m0 0 9 1 48 7 47 5 45 3 27 1h41l31-1 36-3 37-5 36-7 7-1v5l-33 7-32 5-30 3-36 2h-70l-53-3-42-4-46-6-22-4z" fill="#5A74D0"/>
<path transform="translate(710,274)" d="m0 0h7v1l-31 6-36 10-28 10-25 11-17 8-23 13-15 10-17 13-17 16-15 16-7 10-10 15-10 21-5 15-2 9-1 10v22l4 20 5 13 8 15-1 2-6-10-7-15-4-15-1-6-1-32-98-1v6h-1l-1-5-118-1 1-4h117v-11h1v10l101 1 1-7 7-21 8-16 7-12 10-13 15-16 7-8 10-9 24-18 26-16 23-11 9-4 16-7 20-7 21-7 28-7 13-3z" fill="#213D85"/>
<path transform="translate(726,272)" d="m0 0h4l-1 5-16 2-30 6-26 7-29 10-31 13-16 8-17 9-24 16-14 11-10 9-14 14-11 14-8 11-10 18-5 12-6 23-1 8v19l2 15 6 18 9 17 9 12 9 10 11 11 14 10 16 10-3 2-4-1-17-11-10-9-8-7-9-9-6-8-9-14-8-17-4-14-2-12v-22l2-14 3-11 6-16 10-19 9-13 8-10 16-17 16-15 15-11 15-10 17-10 23-11 25-11 28-10 28-8 22-5 12-2h5l1-2z" fill="#097AD4"/>
<path transform="translate(1325,727)" d="m0 0h7l3 3 2 14 7 96 1 16v14l-2 3-13 4h-3l1-5 3-9 2-13v-10l-6-80z" fill="#107ED4"/>
<path transform="translate(1364,885)" d="m0 0h3l1 6-5 3-16 4-9 3-14 3-5 2-14 3-9 3-10 2-5 2-17 4-16 4-9 3-13 3-16 4-13 4-13 3-12 3-8 3h-5l-1-1v-5l44-12 50-13 44-12 11-5 4-1h7v-2l27-6 13-4z" fill="#284992"/>
<path transform="translate(734,533)" d="m0 0 2 3 3 17v9l-1 8-4 8-6 9-10 8-13 5h-16l-13-4-10-8-3-3v-2h-2l-5-10-4-15v-6l8-1 1-2 4 18 5 10 7 7 7 4 14 2 10-2 10-6 5-6h2l3-11 1-10-2-13v-6z" fill="#26448E"/>
<path transform="translate(1282,1181)" d="m0 0 7 6 3 4-1 4-15 14-5 3-7 8-5 5-3 1-7 8-4 3h-2l-2 4-11 10-5 2v-2l-4-2-5-4 1-4 10-9 4-4h3v-2h2v-3l11-9 4-2 2-4 16-15 4-2v-2l5-3z" fill="#25448E"/>
<path transform="translate(1261,1079)" d="m0 0h9l8 2 10 5 10 9 6 10 1 4v9l-6 10-15 15-17 12-6 2v-4l12-7 13-11 5-5 8-9 2-5-1-10-6-9v-2l-4-2-8-6-11-4h-10l-12 4-15 6-16 5-18 5-20 3-14 1h-63l7 8 3 4-5-2-5-5-4-3v-3h-57l1-3 6-2h121l27-3 20-4 21-7 18-7z" fill="#097AD3"/>
<path transform="translate(1144,753)" d="m0 0h5l2 10 5 58 4 51 5 57 1 5-9 3-13-154-1-14v-15z" fill="#24438D"/>
<path transform="translate(1130,1355)" d="m0 0h2l1 2 247 1v4h-242l5 5 11 10 13 9 11 6 4 2v4l-6-1-17-10-11-8-16-16-12-1 1-4h8z" fill="#3551A0"/>
<path transform="translate(1038,567)" d="m0 0h9l19 4 20 7 13 7 3 2v2l-5 2-21 2-29 3-13 2h-10l2-5 22-22-6-2z" fill="#F5B2B2"/>
<path transform="translate(1006,597)" d="m0 0h15l-3 5-10 9h-8v-2l-10-1-20-4-8-1 1 9 11 3 19 3 4 1-1 4-6 5-7 8-5 4-2-5-7-2-1-5-11-9-13-11-4-3v-2l-2-1 2-1 53-3z" fill="#49AEEB"/>
<path transform="translate(620,402)" d="m0 0h20l-2 9-1 6-1 35-9 9-4 15-1-2-3-1-4-13v-14l3-9 5-6-1-3-4-3-3-7v-9l4-6z" fill="#051043"/>
<path transform="translate(633,454)" d="m0 0h10l8 5 4 6v4h2v13l-2 8-3 4h-2v2l-2 1h-10l-7-4-2-5h-2l-3-7v-14l3-7z" fill="#4D91C2"/>
<path transform="translate(871,1178)" d="m0 0 12 7 19 12 18 11 21 13 4 3-9 16-2 1-2-1v-2l-4-2-8-6v-2l-4-2-16-15-6-5v-2l-3-1-4-5-11-9-6-7z" fill="#F8B1B0"/>
<path transform="translate(993,271)" d="m0 0h261v4h-261z" fill="#213B82"/>
<path transform="translate(968,633)" d="m0 0 8 1 1 3 2 1-3 5-11 12-9 11-12 14-2 3h-2l-2 4-9 11h-2v2l-11 2h-8l3-1 2-4 8-10 11-12 7-8 11-13 6-7 9-11z" fill="#579BD1"/>
<path transform="translate(625,1106)" d="m0 0h6l18 8 20 6 17 4 21 3 15 2 8-1h3 34l29-2 40-4 56-7 6-1v2l-5 2 2 1-1 2h-9l-65 8-31 3-15 1h-54l-3-1-26-3-27-6-24-8-15-7z" fill="#3762A4"/>
<path transform="translate(629,956)" d="m0 0h10l20 2v1h-19l-3 3-7 6h-2l-2 4-7 4-9 11h-2l-2 4-8 11-9 17-5 15-1 6v17l3 12 6 9 9 10 11 8 10 6 6 3-3 2-5-1-17-11-7-6-4 6-2 4h-26l1-6 3-5 25-1-1-4-4-2-7-14-2-9v-17l3-14 2-9h2l1-6 10-17 9-11 7-8 2-1 2-6 5-3 5-4h2l1-3h5v-2h-6z" fill="#147AD3"/>
<path transform="translate(728,627)" d="m0 0 15 2 28 5 12 3 1 2v9l-1 6-10-1-37-7-10-2-1-3 2-13z" fill="#569AD0"/>
<path transform="translate(1291,1190)" d="m0 0h2l3 5 8 8-5 5-13 10-18 13-10 7-22 16-3 1-2-1-1-4 12-11 4-4 8-7 2-3 5-3 8-8 3-4 5-3 8-8 6-5z" fill="#F6B0B0"/>
<path transform="translate(588,1021)" d="m0 0h16v1h-15l-4 18v19l2 9 6 9 111 1 1 3-1 2h-104l-2-1 6 7 19 12 20 9 17 6 19 5 34 5 14 1 3 2-8 1-36-5-28-7-21-8-17-8-18-12-9-9-7-10-3-8-1-6v-17l3-13z" fill="#213B83"/>
<path transform="translate(718,277)" d="m0 0 2 1-5 2-28 6-19 5-27 8-26 10-16 7-26 13-5 3-9 6-7 4-6 5-5 3-5 4-9 7-6 5-6 7-8 7-7 7-11 14-7 11-8 15-6 15-4 15h34v4h-35v31l3 13 5 16-1 3-6-15-3-12-1-10v-19l3-17 6-20 10-19 7-11 13-16 9-10 15-15 13-10 14-10 18-11 16-9 29-13 26-10 21-7 23-6z" fill="#213D85"/>
<path transform="translate(972,877)" d="m0 0h4l-1 5-27 6-31 5-39 4-35 2h-38l-10-2 4-3 52-1 43-3 39-5z" fill="#5771CC"/>
<path transform="translate(580,1020)" d="m0 0h4l-1 7-3 14v17l3 11 6 12 4 4-1 2-3-2v-2h-131l-15-1v-3l3-1h138l-5-12-2-9v-16l4-17 1-2z" fill="#213B82"/>
<path transform="translate(756,577)" d="m0 0h8l8 7 6 12 2 8-1 1-43-1 3-9 11-14z" fill="#1B2E71"/>
<path transform="translate(1263,398)" d="m0 0 55 9 22 5 12 5 9 6 9 10 7 14 2 13v11l-2 29-2 32-5 1 4-54v-24l-5-15-8-11-8-6-10-5-28-6-10-1-7-2-21-5-12-1-3-4z" fill="#F3FEFD"/>
<path transform="translate(963,543)" d="m0 0 11 1 49 10 29 6 7 1 1 3 7 1 3 2-10-1-10-2-17-2-30-1-35-7-5-2-1-2v-6z" fill="#E5F6FA"/>
<path transform="translate(450,656)" d="m0 0 6 2 9 5 10 9 10 15v2h2l2 12v10l-4-5-4 2-4-1-3-2-10-22-9-17-4-8z" fill="#097AD4"/>
<path transform="translate(1276,440)" d="m0 0 2 1v14l-1 15 14 1-1 2-13 1-2 6 4 2 9 19-3 3-3-1-7-13-5 5-5 7-5 1-5-8-8-16v-4h6l8 16v2l5-5 5-6 1-9-7-3v-2l-5-1-10-9v-2h-2l-8-11-2-4 5 3 10 11v2l5 2 4 5 8 4 3 1v-9l1-9 1-2z" fill="#097AD4"/>
<path transform="translate(1108,1246)" d="m0 0h5l-3 10-3 7-2 13v15l3 17 6 18 6 12v2l16 1-3 7-2 6-1 5h-10v-2l6-1-2-3-19-1 1-5 3-6h7v-3h-2l-4-9-6-16-4-20v-18l3-15z" fill="#335FA2"/>
<path transform="translate(748,667)" d="m0 0h7l4 5 2 8v16l-2 9h-20l-1-12 2-12 4-9z" fill="#569ACF"/>
<path transform="translate(973,762)" d="m0 0 4 2-2 4-15 4-33 6-32 4-22 2h-19v-1l10-1 2-1h6v-1l-19-1v-1l31-2 28-3 32-5z" fill="#B2DFF5"/>
<path transform="translate(749,779)" d="m0 0h123l2 2-2 1h-7l-1 1h-10v2l-34 1h-21l-32-1-15-2z" fill="#B3E1F6"/>
<path transform="translate(1267,594)" d="m0 0h13l11 4 9 6 8 9 5 11 1 11-3-2v-8l-6-12-1-3-3-1-5-5-10-6-3-1h-20l-23 4h-7v2h7l24 5 4 2 1 5-1 1h-9l-39-8-3-1h-13l-50 8-30 5-5 1h-7v-1l20-4 39-6 37-6 15-2 31-6z" fill="#B0E2F8"/>
<path transform="translate(878,466)" d="m0 0h17l42 8 42 9 1 4-9-1-68-14-14-2h-9l-9 4-6 4-6 7-4 9-1 6v10l3 12 6 15-6-3-5-15-2-8v-14l4-13 4-6 8-7 8-4z" fill="#F3FEFD"/>
<path transform="translate(963,573)" d="m0 0 9 1 40 8 18 4 2 2-6 6h-11l-43-9-9-3-1-1v-7z" fill="#E7F7FA"/>
<path transform="translate(1175,557)" d="m0 0 10 1 10 6 5 4v2h2v6l-36 5h-11l3-5 12-13z" fill="#0C79D2"/>
<path transform="translate(1117,952)" d="m0 0 2 1 2 9-3 1-8 16-4 6h-2l-7-8-17-17 3-2 14-1z" fill="#5599CF"/>
<path transform="translate(1202,571)" d="m0 0 9 1 54 11 5 3v3l13 1v1l-19 1-40 7-16 1-3 2h-7v-1l7-2 2-1 21-2 29-5-41-9-12-3-2-4z" fill="#B0E3F9"/>
<path transform="translate(710,274)" d="m0 0h7v1l-31 6-36 10-28 10-25 11-17 8-23 13-15 10-17 13-17 16-15 16-7 10-10 15-10 21-6 18-2 1 2-10 7-19 11-20 12-16 15-16 7-8 10-9 24-18 26-16 23-11 9-4 16-7 20-7 21-7 28-7 13-3z" fill="#223E86"/>
<path transform="translate(1202,546)" d="m0 0 11 1 55 11 4 4-1 4-16-1-52-11-2-5z" fill="#ECF3F8"/>
<path transform="translate(971,724)" d="m0 0h5l1 4-1 2-27 6-29 5-27 3h-10v-1l4-1h-3v-2l7-3 34-4 33-6z" fill="#AFDEF5"/>
<path transform="translate(1207,580)" d="m0 0 9 1 42 9-1 2-36 6-15 1 2-10v-5l1-2z" fill="#66ABE0"/>
<path transform="translate(633,454)" d="m0 0h10l8 5 4 6v4h2v13l-2 8-3 4h-2v2l-2 1h-10l-7-4-2-5h-2l-3-7v-14l3-7zm2 6-7 5-2 5v7l3 9 6 5 2 1h6l6-4 3-7-1-12h-2l-2-5-4-3z" fill="#A5DDF8"/>
<path transform="translate(1249,456)" d="m0 0 5 5 7 6 4 1v2l5 1 3 2-1 9-9 11h-2l-8-17-6-1-4-10-1-5 1-2 4 1z" fill="#71D0FB"/>
<path transform="translate(1057,363)" d="m0 0h17l44 8 20 3v2l-7 4-3-1v-2l-12-1-26-5-15-3h-17l-12 6-4 4h-2l-2 5-4 9-1 2h-3l1-8 7-12h2l1-3 10-6z" fill="#F2FDFC"/>
<path transform="translate(1327,631)" d="m0 0h19l10 4 9 7 6 8 4 8 3 12v14l-19 4h-6l3-2 14-3h5l-2-1v-8l-2-7-1-7-2-1-2-6-3-4v-2l-5-2-5-3-1-2-4-1v-2l-7-1-1-1-13-1-5 3-1 1-1 13h-1l-1-17 3-2z" fill="#0F7DD4"/>
<path transform="translate(1084,572)" d="m0 0 5 1 16 7 13 8 9 7v2h10v-3l8-7h2l1-3 7-4v2h10l6 3 2 2-1 7h-11l-9-2-1-1h-6l-5 5-7 9-3 1-6-8-8-6v-2l-5-2-15-9-12-6z" fill="#A9E4FD"/>
<path transform="translate(799,427)" d="m0 0h1l1 50v43h-5l-3-35v-13h2l1-12h2l-1-9-2-2v-10l1-2h2v-9z" fill="#EDF9FA"/>
<path transform="translate(740,452)" d="m0 0v3l-18 6-22 8-17 5-7-2-6-7-3-11 2-1 5 8 5 4 4-1 1-1 13-2 15-5 10-1v2l12-3z" fill="#A7C6DF"/>
<path transform="translate(169,693)" d="m0 0h8l27 5h3v5l-8-1-19-4h-12l-9 4-8 7h-2l-2 5-4 8-3 14 1 15 4 13 6 9 10 10 11 7-4 1-11-7-9-10-8-16-3-10v-18l4-13 6-10 7-7 9-5z" fill="#F3FEFD"/>
<path transform="translate(612,724)" d="m0 0 11 1 34 5 7 2 14 2 4 1 15 1 1 3-6 1-1-1h-20l-49-7-9-2-2-2z" fill="#B5E2F6"/>
<path transform="translate(660,549)" d="m0 0h1l4 18 5 10 7 7 9 5-3 1-4-1-6 1v-2l-2 1 7 5-3 1-9-7-3-3v-2h-2l-5-10-4-15v-6l8-1z" fill="#234088"/>
<path transform="translate(1146,1210)" d="m0 0 2 1-5 6h-2v3l-7 4-5 9-4 4-5 3-3 3-3 12-3 13-1 8v29l1 8v5l-2-3-4-16-1-8v-15l3-16 5-12 5-10 9-11 10-10z" fill="#E1F3F9"/>
<path transform="translate(458,488)" d="m0 0h2l1 8 3 9 6 17 8 15 9 12 9 10 11 11 14 10 16 10-3 2-4-1-17-11-10-9-8-7-9-9-6-8-9-14-8-17-4-14-1-5z" fill="#097AD4"/>
<path transform="translate(1407,704)" d="m0 0h11l10 3 11 8 7 10 5 15v20l-4 12-8 15-6 6h-3v-2h2l2-4 7-10 5-13 1-4v-19l-3-11-5-10-7-6-8-4-4-1h-13l-20 4h-6l1-3z" fill="#F2FDFC"/>
<path transform="translate(962,603)" d="m0 0h8l30 6v2h6l-2 4-5 5-25-4-11-3-1-1z" fill="#A9E5FD"/>
<path transform="translate(747,450)" d="m0 0h2l1 3v18l1 16v9l-3 10-10 7-3 4-6 1 1 2v8l2 5h-2v2l-4 1-6-18 5-2 9-3 8-7 3-6 2-9-1-15-5-18-1-4z" fill="#071246"/>
<path transform="translate(868,302)" d="m0 0 43 3 53 3h26l7 2v1h-17l-61-3-64-2-55-1v122h-1v-123l68-1z" fill="#F3FEFD"/>
<path transform="translate(734,533)" d="m0 0 2 3 3 17v9l-1 8-4 3h-3l1 3-4 6-6-1 1-5h2l3-11 1-10-2-13v-6z" fill="#20367B"/>
<path transform="translate(1280,276)" d="m0 0h30l-1 5-4 8h-30l1-7z" fill="#167CCF"/>
<path transform="translate(1407,1363)" d="m0 0h31l-2 5-4 8h-30l2-9z" fill="#177ED2"/>
<path transform="translate(629,956)" d="m0 0h10l20 2v1h-19l-3 3-7 6h-2l-2 4-7 4-9 11h-2l-2 4-8 11-10 18-4-1 2-1 1-6 10-17 9-11 7-8 2-1 2-6 5-3 5-4h2l1-3h5v-2h-6z" fill="#48AEEB"/>
<path transform="translate(529,462)" d="m0 0h11l14 1-3 10-4 2h-24l-3-1 3-9 2-2z" fill="#097AD4"/>
<path transform="translate(1007,309)" d="m0 0 7 1 6 1 12 1h16l7-2h10l13 2 5 4 8 2h12l5 2 4 2-17-1-59-6-39-3v-1l9-1z" fill="#F3FEFD"/>
<path transform="translate(1343,840)" d="m0 0h1l1 16v14l-2 3-13 4h-3l1-5 3-9 1-5 4-1v-11l3-3h3z" fill="#1083DC"/>
<path transform="translate(1115,1335)" d="m0 0 4 1 1 4 16 1-3 7-2 6-1 5h-10v-2l6-1-2-3-19-1 1-5 3-6h7v-3h-2z" fill="#177DD1"/>
<path transform="translate(731,1084)" d="m0 0h29l-1 5-4 7h-28l-1-3z" fill="#097AD4"/>
<path transform="translate(756,577)" d="m0 0h8l8 7 6 12 2 8-1 1h-6l-2-2h2l-2-9-2-7-5-2-6-1-5 1v2l-4 4h-2l-1 10h3v2h-12l1-5 4-7 8-10z" fill="#0B2358"/>
<path transform="translate(414,441)" d="m0 0h33l1 3-4 6-2 1h-34l2-6z" fill="#223E86"/>
<path transform="translate(620,1062)" d="m0 0h34l-1 4-4 6h-34l1-5z" fill="#223F87"/>
<path transform="translate(1169,255)" d="m0 0h34l-2 5-1 2h-2l-1 3h-33l1-4z" fill="#27448D"/>
<path transform="translate(636,853)" d="m0 0h11l45 4 31 2 50 2v1l-29 2-14-1-10 1-2-1-22-1-11-2-8-1v-2l-4 1h-13l-7-1-1-1-16-2z" fill="#F3FEFD"/>
<path transform="translate(625,1106)" d="m0 0h6l18 8 20 6 17 4 21 3 27 3-2 2h-17l-30-4-28-7-22-8-10-5z" fill="#0978D2"/>
<path transform="translate(724,408)" d="m0 0 6 1h5l-4 2-43 14-10 3h-2l-3 6v2 3l-10 3v-7l2-5 4-3 17-6 31-10z" fill="#71ABDB"/>
<path transform="translate(1048,564)" d="m0 0h9l19 5 16 7 9 5 5 5 6 4 6 5v2l-4-1-10-7-16-9-19-7-17-4-1-3-3-1z" fill="#5476CA"/>
<path transform="translate(986,848)" d="m0 0 8 1 3 2h-4v2l-27 1-15 3-24 1h-21l-15 1h-18v-1l44-3 51-5z" fill="#CFE7F3"/>
<path transform="translate(1297,1342)" d="m0 0h33l-2 6-3 1v2h-33l1-4z" fill="#223E86"/>
<path transform="translate(740,935)" d="m0 0h13l22 1h93v1l-20 1-3 1-59 1-19 1-2-1-20-1-4-2z" fill="#D7E7EF"/>
<path transform="translate(362,467)" d="m0 0h26l-1 5-3 6h-26l-1-5h2l2-5z" fill="#EAF2F8"/>
<path transform="translate(1031,793)" d="m0 0h1v7l-29 11-35 13-10 4h-9l1-2 12-4 29-11 20-8 13-5h3v-2h4z" fill="#48AEEB"/>
<path transform="translate(1276,440)" d="m0 0 2 1v14l-1 15 14 1-1 2-13 1-2 6-3 1v-8l-7-3v-2l-5-1-10-9v-2h-2l-8-11-2-4 5 3 10 11v2l5 2 4 5 8 4 3 1v-9l1-9 1-2z" fill="#5388C8"/>
<path transform="translate(878,1153)" d="m0 0 9 6 3 1v2h3v2l5 1 2-6h3v3l-2 1v5l6 3v2h3v2h3v2l6 2 5 4 3 1 3 3 3 1v2l6 2 5 3v2h3v2l5 1 1 3h3v2h3v2l4 1 3 2-3 3v-2l-10-5v-2l-6-2-2-1v-2l-5-1-1-3-5-1v-2h-3l-3-3-3-1v-2l-4-1-16-11-3-1v-2h-3v-2h-3v-2l-5-1v-2h-3v-2h-3v-2l-4-1-4-2v-3z" fill="#92CAEC"/>
<path transform="translate(555,793)" d="m0 0h9l27 5 1 5 1 8-5 1-2-3-18-7-11-6z" fill="#579BD0"/>
<path transform="translate(226,440)" d="m0 0h27l-3 9-2 2h-26l3-9z" fill="#0C7AD1"/>
<path transform="translate(981,254)" d="m0 0h27l-2 6-3 5h-26l3-9z" fill="#0E78CF"/>
<path transform="translate(633,465)" d="m0 0h6l5 5 2 4v7l-4 6-5 1-4-1-4-5-1-6 9-4h3v-2l-10 4h-2l2-6z" fill="#9FDFFB"/>
<path transform="translate(1141,1359)" d="m0 0h144v1l-5 1-137 1-4-2z" fill="#071E51"/>
<path transform="translate(1037,425)" d="m0 0h18l15 5 8 5 1 3-3 5-3-6-8-4-14-3-13 1-5 1-9 6-4 2v-3l5-6z" fill="#E6F9FC"/>
<path transform="translate(660,731)" d="m0 0 13 1 38 4 40 3 21 1v1h-28l-30-2-1 3h13l14 1 4 2-24-1-39-4v-1l11-1v2l5-2v-2h-22l-3-2-12-2z" fill="#ADD9F0"/>
<path transform="translate(993,272)" d="m0 0h121l-1 2-82 1h-38z" fill="#082053"/>
<path transform="translate(438,1061)" d="m0 0 21 1-4 9-1 1h-25v-3l3-7z" fill="#097AD4"/>
<path transform="translate(567,1089)" d="m0 0h26l-1 6-2 4h-26l1-6z" fill="#F8FBFC"/>
<path transform="translate(1099,766)" d="m0 0h2l1 4-19 10-25 10-18 7-3 1v-5l18-6 22-10 19-9z" fill="#48AEEB"/>
<path transform="translate(238,457)" d="m0 0h42l73 1-1 2h-110l-5 1z" fill="#1B3073"/>
<path transform="translate(204,679)" d="m0 0h5v12l-1 15h-1v-13h-13l-7-3v-6l11-4z" fill="#A2C6E0"/>
<path transform="translate(1245,1368)" d="m0 0h25l-1 5-4 6h-25l3-9z" fill="#5A73D0"/>
<path transform="translate(1117,282)" d="m0 0h26l-2 6-2 4h-26l3-9z" fill="#5972CF"/>
<path transform="translate(1284,372)" d="m0 0h2l1 8 11 6 2 3-5-1-9-4-1 10h-3v-11h-13l-10 2-10 5-1 2-6 1-1-3 5-2 4-4 10-4 6-1h17z" fill="#597CCF"/>
<path transform="translate(462,455)" d="m0 0 1 2h35v4h-35v31l3 13 5 16-1 3-6-15-3-12-1-10v-19z" fill="#213B83"/>
<path transform="translate(749,779)" d="m0 0h27l28 1v1l-10 1 8 2 18 1v1h-21l-32-1-15-2z" fill="#B0E0F7"/>
<path transform="translate(648,398)" d="m0 0 1 2h-2l-2 5-2 6-1 8v28l-3 3h-2l-1-3v-30l3-12 5-5z" fill="#5A73D0"/>
<path transform="translate(672,440)" d="m0 0h2l6 15 4 6v3l-2 2-4-1-7-6-3-5-2 1-2-12z" fill="#75D1FB"/>
<path transform="translate(1132,1361)" d="m0 0 3 1 5 6h4l10 9 13 9 11 6 4 2v4l-6-1-17-10-11-8-16-16z" fill="#3361A2"/>
<path transform="translate(766,742)" d="m0 0h84l3 3-18 1h-48l-20-1z" fill="#F3FEFD"/>
<path transform="translate(355,446)" d="m0 0h1v10h2v2l2 1-1 2h-2v6h-1l-1-5-115-1 2-2h110l-72-1v-1h75z" fill="#3855A6"/>
<path transform="translate(506,444)" d="m0 0h22l1 3-3 6-1 1h-23l1-5z" fill="#223E87"/>
<path transform="translate(1084,572)" d="m0 0 5 1 16 7 13 8 9 7v2h10v-3l8-7h2l1-3 3-1-2 4-10 10-6 8-3 1-6-8-8-6v-2l-5-2-15-9-12-6z" fill="#ADDCF3"/>
<path transform="translate(1261,258)" d="m0 0h23l-3 9-1 1h-23l3-9z" fill="#263B82"/>
<path transform="translate(869,1183)" d="m0 0 4 2 12 11 6 5 7 8 8 7 12 11 2 1-1 2-8-6v-2l-4-2-12-10-2-1v-2h-2l-5-6v-2h-2l-4-4v-2l-4-2-6-5-3 1v2h-2l-2 5-7 9-13 16-7 9-1 2-3-1 9-11 4-6h2l2-4 11-14 7-9z" fill="#A9C7DF"/>
<path transform="translate(854,1124)" d="m0 0h8v1l-40 5-20 2h-11v2l-4 1-19 1h-33l-11-2v-1l50-1 37-3z" fill="#C5E2F1"/>
<path transform="translate(1389,1345)" d="m0 0h22l-1 5-3 5h-22l1-6z" fill="#243B7F"/>
<path transform="translate(1281,1179)" d="m0 0 1 3-5 6-4 1v2l-8 7-13 12-5 5-9 8h-2v3h-2v2l-5 3-9 9-3 2-2 3v-2h-2v-2l6-4 8-7-1-4-2-4 4 2 4 1 12-12 7-6 5-5 12-11 4-4 8-7z" fill="#97D0EF"/>
<path transform="translate(712,1065)" d="m0 0 22 1 1 4-5 5h-22l1-5z" fill="#223E87"/>
<path transform="translate(458,488)" d="m0 0h2l1 8 3 9 6 17 8 15 8 11 1 5-3-1-9-12-11-21-5-17-1-5z" fill="#0C7FD9"/>
<path transform="translate(1182,386)" d="m0 0h18l25 5 12 3 1 3-7 1-10-3-24-4-12-3-3 1z" fill="#F3FEFD"/>
<path transform="translate(605,1090)" d="m0 0 11 7 16 8 11 5 17 6 19 5 34 5 14 1 3 2-8 1-36-5-28-7-21-8-17-8-15-10z" fill="#223E87"/>
<path transform="translate(1179,272)" d="m0 0h74v3h-60l-15-1z" fill="#172B6A"/>
<path transform="translate(635,497)" d="m0 0 13 1 4 4 4 20v3l-3-1-3-8-10-11-5-7z" fill="#061043"/>
<path transform="translate(718,277)" d="m0 0 2 1-5 2-28 6-19 5-27 8-26 10-11 5-4-1 23-10 37-13 23-6z" fill="#223E87"/>
<path transform="translate(1263,1077)" d="m0 0 11 1 12 5 8 6 8 9 4 8 1 9-3 9-4 3 2-5 2-4v-9l-4-10-9-10-10-6-5-2-6-1h-9l-10 3-15 6-19 6h-6l4-2 21-7 21-8z" fill="#223E86"/>
<path transform="translate(1044,869)" d="m0 0 2 3 1 10 6 3 1 4v9l-3 3-1 7v13l-2-4-3-28z" fill="#4A8BBA"/>
<path transform="translate(650,731)" d="m0 0h10l18 3 4 1 15 1 1 3-6 1-1-1h-20l-15-2v-2l-4-1 1-1z" fill="#E6F7FA"/>
<path transform="translate(658,469)" d="m0 0 3 4 1 13-1 2h2l-1 6-6 6-5 2-3-3-9-1v-1l11-1v-2l4-4 3-7z" fill="#182C6D"/>
<path transform="translate(466,434)" d="m0 0 2 1-4 16-3 17v28h-1v-8h-2l-1 2v-22l2-14 3-11z" fill="#097AD4"/>
<path transform="translate(843,1121)" d="m0 0h5l-3 2-35 5-38 2-36 1-9-1 4-3 2 1h34l29-2 40-4z" fill="#418DC8"/>
<path transform="translate(1140,375)" d="m0 0 5 1 17 3 9 1v2l5 2 2 1v2l-13-2-30-5z" fill="#F1FCFC"/>
<path transform="translate(629,956)" d="m0 0h10l20 2v1h-19l-3 3-7 6h-2l-2 4-4 2h-6l1-5 5-3 5-4h2l1-3h5v-2h-6z" fill="#70AFDE"/>
<path transform="translate(622,1107)" d="m0 0 5 1 18 8 23 7 23 5 26 3 4 1-3 2-31-4-25-6-24-8-16-8z" fill="#223E87"/>
<path transform="translate(1155,1193)" d="m0 0 4 3-1 3-4 1v2h-3v2l-8 4-14 11-9 9-2-2 6-8 6-5 3-3 3-1 5-6 8-1 5-7z" fill="#D7EFF7"/>
<path transform="translate(1299,1122)" d="m0 0h3l-2 5-16 16-17 12-6 2v-4l12-7 13-11 9-8 3-1z" fill="#097AD4"/>
<path transform="translate(897,1114)" d="m0 0 1 2-5 2 2 1-1 2h-9l-39 5h-8l4-2 18-2 4-1-4-2 32-4z" fill="#4489C0"/>
<path transform="translate(1261,1082)" d="m0 0h10l11 4 8 6 5 5 3 4-1 2-8-9-11-7-7-2h-11l-16 6-19 7-8 2 1-3 16-5 23-9z" fill="#223F88"/>
<path transform="translate(1267,594)" d="m0 0h13l11 4 9 6 8 9 5 11 1 11-3-2v-8l-6-12-1-3-3-1-5-5-10-6-3-1h-20l-23 4h-7l-1 2-2-2 13-3z" fill="#ADD7EE"/>
<path transform="translate(1406,1189)" d="m0 0h12l10 4 9 8 2 5h-3l-3-6-11-7-8-2-10 1-19 9-10 6-21 8-4-1 19-7 23-12 10-5z" fill="#AEDAF0"/>
<path transform="translate(772,1129)" d="m0 0h8v1l9 1v1l-15 1h-54v-1l12-1 4-1z" fill="#2E74B7"/>
<path transform="translate(710,738)" d="m0 0 23 1 26 2-1 3h-18l-27-2v-2z" fill="#F3FEFD"/>
<path transform="translate(1285,1359)" d="m0 0h39v2h55v1h-76l-18-1z" fill="#2C458D"/>
<path transform="translate(584,1020)" d="m0 0h5l-5 14-1 6v17l2 9-1 4-3-3-2-9v-17l3-14z" fill="#0A7CD6"/>
<path transform="translate(743,1122)" d="m0 0 10 3 6 2 37-1v1l-29 2h-35l1-3z" fill="#EBF7F9"/>
<path transform="translate(235,535)" d="m0 0 9 2 16 4 18 6 26 7 26 6 3 2-9-1-48-12-33-10-8-3z" fill="#F3FEFD"/>
<path transform="translate(599,313)" d="m0 0 3 2-11 5-16 8-7 4-9 6-7 4-6 5-5 3-3 3-2-1 5-6 20-13 18-10 16-8z" fill="#213B82"/>
<path transform="translate(720,671)" d="m0 0h1l-1 18-2 15h-11l3-2z" fill="#589CD1"/>
<path transform="translate(677,424)" d="m0 0h6l-1 2h-2v2h-4l-3 6v2 3l-10 3v-7l2-5 4-3z" fill="#A2D9F5"/>
<path transform="translate(884,776)" d="m0 0h9l-1 2-8 1 2 1h5l-6 3-12 1h-19v-1l10-1 2-1h6v-1l-19-1v-1z" fill="#ADD8EF"/>
<path transform="translate(1236,447)" d="m0 0 2 1v2l4 2 2 6-1 4 3 9 1 1 2 10 3 5 1 6-3 7-3 3-4 2-3-1 8-6 2-6-3-9-8-26-3-7z" fill="#AED8EE"/>
<path transform="translate(625,1106)" d="m0 0h6l18 8 12 4v3l-7-1-21-8-8-4z" fill="#097AD4"/>
<path transform="translate(770,894)" d="m0 0h29l-1 2 7 2v1h-25l-13-1v-1l4-1z" fill="#5A75CF"/>
<path transform="translate(728,407)" d="m0 0h10l5 5 5 12 4 12v8l-3 3-1-5 1-3-4-15-2-9-3-1-2-3-8-1h-5l3-1z" fill="#9ACEED"/>
<path transform="translate(1084,575)" d="m0 0 10 2 7 4 5 5 6 4 6 5v2l-4-1-10-7-14-8-4-4z" fill="#3455A1"/>
<path transform="translate(1276,440)" d="m0 0 2 1v14l-1 15 14 1-1 2h-14l-2-6-1 2v-9l1-9 1-2z" fill="#5389CC"/>
<path transform="translate(1158,1382)" d="m0 0 6 2 18 10v4l-6-1-17-10-3-2v-2z" fill="#335EA2"/>
<path transform="translate(665,573)" d="m0 0 4 2 7 8 10 6-3 1-4-1-6 1v-2h-4l-4-5 1-7z" fill="#20357A"/>
<path transform="translate(1323,431)" d="m0 0h1v5l7 1 2 4-9-1-2 9-4 7-6 3 7-14 2-6-3-1 3-1 1-5z" fill="#5B7CD1"/>
<path transform="translate(1324,1359)" d="m0 0h57l-1 3-56-1z" fill="#082053"/>
<path transform="translate(878,1153)" d="m0 0 9 6 3 1v2h3v2l5 1 2-6h3v3l-2 1v5l6 3-1 4-4-2v-2h-3v-2h-3v-2l-5-1v-2h-3v-2h-3v-2l-4-1-4-2v-3z" fill="#8CC1E9"/>
<path transform="translate(1470,798)" d="m0 0h1v91l-2 5-1 7h-1v-12h2z" fill="#EFFBFB"/>
<path transform="translate(1150,583)" d="m0 0v3l-10 10-7 9-3 1-6-8-2-3h4l1 2h10v-3l8-7h2l1-3z" fill="#A9C8E0"/>
<path transform="translate(1333,729)" d="m0 0 2 1 1 4v8l-2 4-2 3-4-6v-11z" fill="#0D81DB"/>
<path transform="translate(1119,321)" d="m0 0 14 2 9-1 8 3 23 4v1l-13-1-47-6v-1z" fill="#F3FEFD"/>
<path transform="translate(891,737)" d="m0 0h11l5 2-1 3-13 2h-10v-1l4-1h-3v-2z" fill="#BEE4F6"/>
<path transform="translate(1233,436)" d="m0 0 5 3 2 5 8 10 1 3-2 3-5-5-2-4-5-4z" fill="#AEDFF6"/>
<path transform="translate(371,792)" d="m0 0h7l47 10v2l-7-1-11-1-7-2-9-2-6-2-14-3z" fill="#0A7CD6"/>
<path transform="translate(1261,258)" d="m0 0h21l-2 6-1 2h-14v-1h12l-10-2v-2h-3v-2z" fill="#2C4A97"/>
<path transform="translate(487,400)" d="m0 0 1 3-9 14-9 19-4 13-2 8h-1l1-10 5-16 10-19 7-11z" fill="#213D85"/>
<path transform="translate(660,549)" d="m0 0h1l1 8-1 3h-3l-1 5-3 2-2-9v-6l8-1z" fill="#25438D"/>
<path transform="translate(580,1020)" d="m0 0h4l-1 7-3 14v17l3 11 1 4-3-1-3-9-1-6v-16l4-17 1-2z" fill="#223E86"/>
<path transform="translate(1392,1345)" d="m0 0h19l-1 5-2 4-17-1v-1l7-1 6 1v-2h-2l-1-2h-11z" fill="#213F86"/>
<path transform="translate(1258,557)" d="m0 0 10 1 4 4-1 4-16-1 4-2-1-4z" fill="#D9F0F8"/>
<path transform="translate(1309,857)" d="m0 0h1l3 15 3 1v3h3l1-4 3-2-1 6-2 3h-9l-2-4z" fill="#0D7DD5"/>
<path transform="translate(866,1186)" d="m0 0 1 3h-2l-2 5-7 9-13 16-7 9-1 2-3-1 9-11 4-6h2l2-4 11-14z" fill="#AEDBF1"/>
<path transform="translate(865,683)" d="m0 0 3 3 4 5 4 4 4 5-1 3-6 1-4-8-4-11z" fill="#4C8ABD"/>
<path transform="translate(1328,833)" d="m0 0h1v23l-4 13-2 3-2-7 3-1 2-19 1-1z" fill="#2082D0"/>
<path transform="translate(1465,895)" d="m0 0h2l2 16v20h-1l-2-22-3-1 1-3h-2l1-6z" fill="#0A184D"/>
<path transform="translate(759,741)" d="m0 0h15v1l-5 1v1l18 1v1h-37l-6-1v-1l14-1z" fill="#B0E1F8"/>
<path transform="translate(1238,1219)" d="m0 0 1 3-3 1v3h-2v2l-5 3-9 9-3 2-2 3v-2h-2v-2l6-4 8-7-1-4-2-4 4 2 4 1z" fill="#A0D4F3"/>
<path transform="translate(986,848)" d="m0 0 8 1 3 2h-4v2h-24l1-2h7v-2z" fill="#DEF1F7"/>
<path transform="translate(847,635)" d="m0 0h2l14 40 2 7-3-1-5-15-9-24z" fill="#55A6DE"/>
<path transform="translate(274,624)" d="m0 0h5l-3 4-2 32-1 8-2 1 1-23z" fill="#2283CE"/>
<path transform="translate(1304,1203)" d="m0 0 11 7 1 2-4-1-5-3-5 1-11 7h-2v2l-9 6-2-1 14-11z" fill="#A9C7DF"/>
<path transform="translate(1428,792)" d="m0 0 3 1-2 4-10 6-7 1v-4l12-5z" fill="#D1EAF4"/>
<path transform="translate(548,433)" d="m0 0h13l-1 4-1 2h-14l2-5z" fill="#BBC9E1"/>
<path transform="translate(1054,1142)" d="m0 0 12 2 3 2 7 1 7 2-1 4-14-4-16-5z" fill="#0C1950"/>
<path transform="translate(1300,1102)" d="m0 0 3 1 2 6v9l-2 4-3 1-1-2 2-5zm-2 20m-1 1 2 1-2 4-2-2z" fill="#0B7ED8"/>
<path transform="translate(184,938)" d="m0 0 9 3 17 8 21 8v1l-9-1-24-11h-3v-2l-5-2-6-3z" fill="#F3FEFD"/>
<path transform="translate(380,543)" d="m0 0 3 1 3 6 1 3 3 1 1 6 5 7 2 2v4l-3-1-14-25z" fill="#071448"/>
<path transform="translate(1052,534)" d="m0 0 8 2v10l-4-1-3-3v-2h-2l-1-5z" fill="#0F84DE"/>
<path transform="translate(1146,1210)" d="m0 0 2 1-5 6h-2v3l-11 6-7 6 2-4 11-11z" fill="#D6EEF7"/>
<path transform="translate(736,1125)" d="m0 0 2 1-1 1h29l18-1h12v1l-29 2h-35l1-3z" fill="#AACFE9"/>
<path transform="translate(584,1020)" d="m0 0h5l-5 14-2 16h-1l-1-15z" fill="#0B7DD7"/>
<path transform="translate(781,683)" d="m0 0h1l2 17v5l2 1h-8l2-21z" fill="#5598CB"/>
<path transform="translate(1101,582)" d="m0 0 5 2 10 6 7 8 3 3 1 4-4-1-6-7-2-4-10-7z" fill="#488ABC"/>
<path transform="translate(929,583)" d="m0 0h1v13l-4-2-6-7z" fill="#AFE7FD"/>
<path transform="translate(1339,787)" d="m0 0h1l1 19h-1l-1-6-4 2-2-2v-8l4-2 1 1z" fill="#0F84DE"/>
<path transform="translate(740,414)" d="m0 0 3 1 5 17v7h-1l-4-16-2-5-10 3-12 4-3-1 22-8h2z" fill="#5EA5DB"/>
<path transform="translate(654,525)" d="m0 0h2l3 14 1 11h-3l-2-6-1-12z" fill="#0A174C"/>
<path transform="translate(1379,805)" d="m0 0 4 1 1 7-3 3-4-1-2-3 1-5z" fill="#D2F3FD"/>
<path transform="translate(1250,556)" d="m0 0h8v3l2 1h-2l2 4h-9l-2-5z" fill="#F3F8FA"/>
<path transform="translate(736,542)" d="m0 0h1l2 11v9l-1 8h-1l-1-14 1-2-4-1v-5-2l1-3 1 1z" fill="#24468F"/>
<path transform="translate(1117,272)" d="m0 0h24l2 2-6 1h-18l-4-2z" fill="#132865"/>
<path transform="translate(1131,1224)" d="m0 0 2 1-2 4-4 6-7 5-2-1 3-6z" fill="#EBF9FB"/>
<path transform="translate(753,1055)" d="m0 0h13v5h-14z" fill="#DCEFF8"/>
<path transform="translate(458,488)" d="m0 0h2l1 8 3 9 1 7-3 1-4-16z" fill="#0B7ED8"/>
<path transform="translate(655,488)" d="m0 0 1 3-2 4 5-3-1 4-2 4-5 2-3-3-9-1v-1l11-1v-2l4-4z" fill="#26448B"/>
<path transform="translate(1309,635)" d="m0 0h5v8l-1-4-3 1v-2l-4 1-11 1-8 1v-2z" fill="#0A7DD7"/>
<path transform="translate(629,468)" d="m0 0 1 2-2 4 9-4h3v2l-11 4 1 6 3 4-2 2-4-6-1-5v-7z" fill="#59A0D6"/>
<path transform="translate(1238,441)" d="m0 0 5 3 10 11v2l3 1 2 5-7-6-3-1-8-11z" fill="#3761A4"/>
<path transform="translate(1236,447)" d="m0 0 2 1v2l4 2 2 6-1 4 4 12-3-1-7-21z" fill="#A9C7DF"/>
<path transform="translate(1299,1127)" d="m0 0v3l-7 8-14 11-11 7 1-3 13-9 10-9z" fill="#223E86"/>
<path transform="translate(1164,357)" d="m0 0 2 1 2 5 1 2-4 1 4 12h-2l-3-5-2-9-4-1v-2l5-1z" fill="#9ABDD9"/>
<path transform="translate(791,1128)" d="m0 0h19v1l-9 1-1 1h-24l4-2z" fill="#2A4E94"/>
<path transform="translate(286,626)" d="m0 0 10 1 21 4v1h-17l-2-2-12-2z" fill="#288AD5"/>
<path transform="translate(637,474)" d="m0 0h5l1 6-10 4v-3l4-2h-6v-2z" fill="#5AA0D6"/>
<path transform="translate(359,409)" d="m0 0h1l1 12 1 5-3 4v-3h-2v-13z" fill="#051043"/>
<path transform="translate(852,1120)" d="m0 0h12l1 2-12 2-14 1-2-2 11-2z" fill="#2564AE"/>
<path transform="translate(683,431)" d="m0 0h3v3h2l-1 6h-2v-3h-3l-1 5-4-4v-5l6 2z" fill="#36649E"/>
<path transform="translate(1430,1334)" d="m0 0h13l-2 5h-12z" fill="#5A73CF"/>
<path transform="translate(216,1074)" d="m0 0h1v31l-2 2-1-1v-20z" fill="#203170"/>
<path transform="translate(749,779)" d="m0 0h11l14 1-2 3h-8l-7-1h-6z" fill="#F3FEFD"/>
<path transform="translate(1207,428)" d="m0 0 9 1 2 2-14 5-8 4-2-1 5-4 5-1v-2l4-2z" fill="#A9C7DF"/>
<path transform="translate(1335,1217)" d="m0 0 4 1-2 20h-3v-10z" fill="#15306C"/>
<path transform="translate(1299,1105)" d="m0 0 2 1 1 10-3 6-10 12-7 6h-2l1-3 6-5h2l2-4 7-8 2-5z" fill="#223F88"/>
<path transform="translate(359,479)" d="m0 0h8l-3 1-1 6 1 4v7l-2 1-3-13z" fill="#061245"/>
<path transform="translate(402,647)" d="m0 0 9 1 23 4-4 2-25-4z" fill="#2A88D2"/>
<path transform="translate(470,421)" d="m0 0 1 2-5 11-6 18-2 1 2-10 7-19z" fill="#223F88"/>
<path transform="translate(718,410)" d="m0 0h6l-1 2-24 8-3-1 5-3 16-5z" fill="#AAD3F0"/>
<path transform="translate(1308,247)" d="m0 0h8l-2 5-2 1h-10l-1-2 2-3z" fill="#5A73CF"/>
<path transform="translate(478,826)" d="m0 0h1v24l-1 9h-1l-1-13v-10h2z" fill="#2184D3"/>
<path transform="translate(1325,727)" d="m0 0h7v4l-4 1v11l-2 2z" fill="#1D83D3"/>
<path transform="translate(750,667)" d="m0 0h5l4 5 1 3v8l-2-3-1-5-3-1-1-2-4 1v-4z" fill="#4D8FBE"/>
<path transform="translate(1203,648)" d="m0 0 10 1 9 2v1l-18 2z" fill="#5194C6"/>
<path transform="translate(640,470)" d="m0 0 2 4-11 3v2l6-1 1 2-5 2v2l-4-2-1-6 9-4h3z" fill="#76D2FC"/>
<path transform="translate(526,620)" d="m0 0 5 1 9 6 4 3v2l3 1 6 9-1 2-7-9-10-9-9-5z" fill="#AED9F0"/>
<path transform="translate(728,407)" d="m0 0h10l5 5 3 6v2h-2l-1-5-3-1-2-3-8-1h-5l3-1z" fill="#A7D2EE"/>
<path transform="translate(1347,1215)" d="m0 0h2l-1 21-3-1v-10l1-9z" fill="#122A65"/>
<path transform="translate(1281,1179)" d="m0 0 1 3-5 6-4 1v2l-8 6v-3l5-6 6-4z" fill="#9CCBED"/>
<path transform="translate(261,796)" d="m0 0h1l1 9h6v-1l11 1-4 2-1 1h-13l-1-1z" fill="#4CACE8"/>
<path transform="translate(1164,1384)" d="m0 0 5 1 5 3h6l5 5-3 3v-2l-6-2-12-7z" fill="#DCF2F9"/>
<path transform="translate(1130,1355)" d="m0 0h2l1 6-1 1h-12l1-4h8z" fill="#224A90"/>
<path transform="translate(689,1128)" d="m0 0 32 3-3 3-26-3-3-1z" fill="#23418B"/>
<path transform="translate(1390,803)" d="m0 0 5 1 1 4-5 5-3-2-1-5 3-1z" fill="#DAF0F7"/>
<path transform="translate(1338,819)" d="m0 0h2v9l1 2v6l-2 1-2-1-1-10z" fill="#0F84DE"/>
<path transform="translate(1184,444)" d="m0 0 3 1-5 4h-2v2l-15 11-5 2 5-5 8-6h2v-2z" fill="#A9C7DF"/>
<path transform="translate(655,444)" d="m0 0h2l5 16 1 5-3-4-4-7-3-3 1-5z" fill="#5C7FD3"/>
<path transform="translate(993,272)" d="m0 0h9l18 2v1h-27z" fill="#172B6B"/>
<path transform="translate(1402,800)" d="m0 0 4 1 1 1v5l-2 2-5-1-1-5z" fill="#D9EDF5"/>
<path transform="translate(264,768)" d="m0 0 6 1v2l-5-1v13l-1 8h-2l1-22z" fill="#2384CF"/>
<path transform="translate(660,731)" d="m0 0 13 1 27 3v1h-25l-3-2-12-2z" fill="#ADD7EE"/>
<path transform="translate(929,1285)" d="m0 0h3v3l-10 2h-10l1-2z" fill="#142F6A"/>
<path transform="translate(926,1275)" d="m0 0h3l-1 3-20 2v-3z" fill="#162F6E"/>
<path transform="translate(223,1150)" d="m0 0h2v3l2 1v5l1 3 2 1 1 8h-2l-6-16z" fill="#061245"/>
<path transform="translate(243,620)" d="m0 0h14l2 2-17 1-10 4-2-1 9-5z" fill="#2286D4"/>
<path transform="translate(1150,583)" d="m0 0v3l-10 10-4 5h-3l2-4h2v-3l8-7h2l1-3z" fill="#ABCEE6"/>
<path transform="translate(1141,1359)" d="m0 0h26v1l-20 2-8-1z" fill="#092256"/>
<path transform="translate(1290,1192)" d="m0 0 2 2-16 15-2 1 1-4 9-9z" fill="#304591"/>
<path transform="translate(215,1107)" d="m0 0h2l1 14h2v7l-3 2-2-15z" fill="#071448"/>
<path transform="translate(794,505)" d="m0 0h1l1 5v10h-7l3-8h1z" fill="#13215A"/>
<path transform="translate(1279,424)" d="m0 0 5 1-1 12-1 2h-2v-6l-3-1 1-3h3v-2l-2-1z" fill="#5596CB"/>
<path transform="translate(1100,1268)" d="m0 0h1v31l-2-3-1-6v-18z" fill="#CFEDF8"/>
<path transform="translate(194,793)" d="m0 0h6v7l-3 2-4-4z" fill="#F3FEFD"/>
<path transform="translate(264,623)" d="m0 0h6l-2 30h-1v-28z" fill="#2B8AD4"/>
<path transform="translate(205,796)" d="m0 0 7 1v6l-5 1-2-3z" fill="#DBF1F8"/>
<path transform="translate(228,627)" d="m0 0 2 1-6 5v-3zm-6 6m-1 1v3l-2 7-2 1-1 4-3 1 1-5 6-10z" fill="#1C83D3"/>
<path transform="translate(1048,564)" d="m0 0h9v2l7 1-1 2h-11l-1-3-3-1z" fill="#2D5398"/>
<path transform="translate(916,559)" d="m0 0 4 1 1 6-2 2-4-1-1-7z" fill="#F3FEFD"/>
<path transform="translate(1256,383)" d="m0 0h3v2l-10 5-1 2-6 1-1-3z" fill="#3D62AB"/>
<path transform="translate(758,341)" d="m0 0 2 3 7 17v2l-3-1-1-6h-2l-3-8z" fill="#12215A"/>
<path transform="translate(726,272)" d="m0 0h4l-1 5-13-1 2-3z" fill="#2977BF"/>
<path transform="translate(248,984)" d="m0 0h2l-1 5-6 9-4 2 2-5z" fill="#111F57"/>
<path transform="translate(1232,508)" d="m0 0 2 1-8 7-10 6-5 1 3-3 10-6z" fill="#ABCCE4"/>
<path transform="translate(1254,421)" d="m0 0 4 2 6 7-1 5-3-1-2-4v-4l-3-1z" fill="#5086C4"/>
<path transform="translate(1108,1246)" d="m0 0h5l-3 10-3 7-1-4 2-6-3 3 1-5z" fill="#3C78B5"/>
<path transform="translate(1148,1153)" d="m0 0 5 1 2 1v2l4 2 3 4v2l-4-2-8-6v-2h-2z" fill="#8EBFE5"/>
<path transform="translate(553,338)" d="m0 0h2v2l-9 7-5 3-3 3-2-1 5-6z" fill="#203A82"/>
<path transform="translate(661,557)" d="m0 0 2 1 1 10-3-2-4 1-2 1 2-5 1-3h3z" fill="#23367C"/>
<path transform="translate(903,556)" d="m0 0 5 2 1 5-1 1h-6v-7z" fill="#F3FEFD"/>
<path transform="translate(1174,1175)" d="m0 0h2v2l4 2 7 7v2l-4-2-8-6v-2h-2z" fill="#95C4E9"/>
<path transform="translate(923,852)" d="m0 0h24v1l-18 2h-12v-1z" fill="#4A8BBA"/>
<path transform="translate(1316,667)" d="m0 0h1l1 17v13h-2l-1-4z" fill="#318DD4"/>
<path transform="translate(1313,658)" d="m0 0h2l1 5v13l-2-3v-7l-3-1 1-5z" fill="#097AD4"/>
<path transform="translate(782,643)" d="m0 0h1v11h-5l-3-3h2v-2l3-2z" fill="#4B8DBB"/>
<path transform="translate(661,482)" d="m0 0 1 4-1 2h2l-1 6-5 5-3-1 4-3 1-8z" fill="#1B3476"/>
<path transform="translate(663,471)" d="m0 0h2v16l-2 3v-2h-2z" fill="#263D85"/>
<path transform="translate(226,440)" d="m0 0 4 1-4 4-1 4 23 1v1h-26l3-9z" fill="#3C70A9"/>
<path transform="translate(848,1118)" d="m0 0h21v1l-17 2h-9l3-2z" fill="#CDE9F5"/>
<path transform="translate(930,1098)" d="m0 0h3v4h-2l-2 6-3 7-3-1 2-6h2z" fill="#88BEE6"/>
<path transform="translate(254,965)" d="m0 0 7 2-1 4-3 4-3-1-1-6z" fill="#E9F6F9"/>
<path transform="translate(463,512)" d="m0 0h3l4 10-1 3h-2l-4-9z" fill="#0D80DA"/>
<path transform="translate(357,463)" d="m0 0 14 2v1h-9l-2 5-1 2h-2z" fill="#051143"/>
<path transform="translate(949,1201)" d="m0 0 7 2v2h3v2l4 1 3 2-3 3v-2l-10-5v-2l-4-2z" fill="#95CDED"/>
<path transform="translate(807,1123)" d="m0 0h20v1l-19 2h-12v-1l10-1z" fill="#C3E6F6"/>
<path transform="translate(625,1106)" d="m0 0h6l6 3 1 3-3 1-10-5z" fill="#0A7CD6"/>
<path transform="translate(1026,1038)" d="m0 0 6 5 4 2 3 3v3h-3l-5-5-6-7z" fill="#99C7E7"/>
<path transform="translate(1326,858)" d="m0 0h2l-2 9-2 5-2-2-1-5 3-1 1-5z" fill="#1B81D2"/>
<path transform="translate(1322,680)" d="m0 0 2 3 3 9h5l-1 2-8 2z" fill="#1B81D2"/>
<path transform="translate(1181,549)" d="m0 0h2v9h-6l-2-2z" fill="#A2D2ED"/>
<path transform="translate(939,1193)" d="m0 0 5 2v2h3v2l5 1 1 2-5 1-3-2v-2l-5-1z" fill="#74B4E0"/>
<path transform="translate(872,980)" d="m0 0h6v2l7 1 2 1-1 2-11-2-3-1z" fill="#86BDE3"/>
<path transform="translate(1140,1363)" d="m0 0 6 1 1 3h2l1 6-4-2z" fill="#E9F9FB"/>
<path transform="translate(1422,1192)" d="m0 0 6 1 9 8 2 5h-3l-3-6-11-7z" fill="#ACD3EA"/>
<path transform="translate(1263,1196)" d="m0 0h2l-2 4-10 9-2-2 5-5z" fill="#9BD1F0"/>
<path transform="translate(915,1129)" d="m0 0h3l-2 7h-2l-1 4-2 5h-2l1-5z" fill="#96C6E7"/>
<path transform="translate(839,1127)" d="m0 0h5l-4 3-13 1h-7l2-2z" fill="#F3FEFD"/>
<path transform="translate(885,1120)" d="m0 0h9l-2 6-5-2v-2h-9v-1z" fill="#CFE6F1"/>
<path transform="translate(928,562)" d="m0 0 5 2v5l-5 1-1-1v-6z" fill="#EDFBFD"/>
<path transform="translate(883,554)" d="m0 0 7 1 6 2v3h-7l-6-5z" fill="#F3FEFD"/>
<path transform="translate(1118,1237)" d="m0 0 1 3v2l-2 1-2 8-5 3 2-6 5-10z" fill="#CBE7F3"/>
<path transform="translate(1304,1203)" d="m0 0 11 7 1 2-4-1-5-3-5 1-4 1z" fill="#ABCFE6"/>
<path transform="translate(1070,1147)" d="m0 0h6l7 2-1 4-12-3z" fill="#0B194E"/>
<path transform="translate(1330,871)" d="m0 0 2 2 11-2v2l-13 4h-3l1-5z" fill="#157CD0"/>
<path transform="translate(1322,751)" d="m0 0h1l1 22h-2l-1-2v-11z" fill="#2685CF"/>
<path transform="translate(976,577)" d="m0 0h9l1 4-6 1-6-2z" fill="#F9FCFD"/>
<path transform="translate(1199,1199)" d="m0 0 4 2 6 4 3 4v2l-4-2-8-7z" fill="#AAD3ED"/>
<path transform="translate(1050,1061)" d="m0 0 4 2 9 7v3l-4-2-8-7z" fill="#9DCFED"/>
<path transform="translate(1321,632)" d="m0 0h5l-2 1-2 4-1 1-1 13h-1l-1-17z" fill="#2C8BD4"/>
<path transform="translate(1274,467)" d="m0 0 2 1 1 6-2 6-3 1v-8h2v-2l-3-1z" fill="#4E85C1"/>
<path transform="translate(355,446)" d="m0 0h1v10h2v2l2 1-1 2h-2v6h-1l-1-5-3-2 3-3z" fill="#35509F"/>
<path transform="translate(946,1068)" d="m0 0h2l-3 10h-2l-2 6h-3v-2h2l2-7z" fill="#94C5E7"/>
<path transform="translate(484,771)" d="m0 0h1l1 23-3 3z" fill="#5FA3D9"/>
<path transform="translate(856,661)" d="m0 0 3 3 6 16v2l-3-1-5-15z" fill="#5FA3D9"/>
<path transform="translate(380,643)" d="m0 0 9 1 11 2v1h-13l-7-2z" fill="#2D8AD3"/>
<path transform="translate(1124,1130)" d="m0 0h4v2h2l7 8 1 2-4-2-10-8z" fill="#9CD0EF"/>
<path transform="translate(1075,1084)" d="m0 0 3 1v2l4 2 5 3 1 4h-3l-1-2-3-1-6-7z" fill="#A3D0ED"/>
<path transform="translate(1e3 1015)" d="m0 0 4 2 8 8v2l-4-2-7-6z" fill="#A7D9F2"/>
<path transform="translate(838,972)" d="m0 0 9 1 7 3v2l-14-3v-2z" fill="#8CC6E9"/>
<path transform="translate(720,671)" d="m0 0h1l-1 18-2 1-1-5 2-10z" fill="#589BCD"/>
<path transform="translate(747,321)" d="m0 0h2l7 15-3-1v-2h-2l-1-6-3-1z" fill="#0B184F"/>
<path transform="translate(1224,1232)" d="m0 0 3 1-7 7-3 2-2 3v-2h-2v-2l6-4z" fill="#9FD2F0"/>
<path transform="translate(1100,1107)" d="m0 0h3l7 8 3 4-5-2-5-5-3-2z" fill="#9FD0EE"/>
<path transform="translate(581,1030)" d="m0 0 3 1-2 19h-1l-1-15z" fill="#097AD4"/>
<path transform="translate(224,677)" d="m0 0h1v9l-2 11h-1v-14z" fill="#0A7CD6"/>
<path transform="translate(266,657)" d="m0 0h1v10l-1 5-4-1v-6l3-2z" fill="#2688D3"/>
<path transform="translate(1057,565)" d="m0 0 13 2 3 2-7 1-4 1-4-2 5-1-6-2z" fill="#5582CC"/>
<path transform="translate(502,382)" d="m0 0v3l-11 13-3 3 1-4 11-13z" fill="#223F88"/>
<path transform="translate(256,783)" d="m0 0h1v17l-2 2-1-5z" fill="#1980D0"/>
<path transform="translate(1332,771)" d="m0 0h3l1 6-1 3h-2v-2h-2l-1-5h2z" fill="#0F84DE"/>
<path transform="translate(921,581)" d="m0 0 4 1 1 3-9 1-1-3z" fill="#1F78C7"/>
<path transform="translate(1207,524)" d="m0 0 2 1-2 4 9 1v1l-16-1 5-5z" fill="#ADD7EE"/>
<path transform="translate(549,434)" d="m0 0h11l-1 4h-6z" fill="#F4FBFC"/>
<path transform="translate(769,369)" d="m0 0 2 3 3 12h-2l-2-6-2-1-1-5z" fill="#112058"/>
<path transform="translate(1244,1247)" d="m0 0 2 1-8 7h-2l3 5-1 2-5-7z" fill="#AACDE5"/>
<path transform="translate(1157,1203)" d="m0 0h2l-2 5-3 2h-6l6-6z" fill="#D8EDF7"/>
<path transform="translate(183,790)" d="m0 0 4 1 1 6-5 1z" fill="#F3FEFD"/>
<path transform="translate(274,624)" d="m0 0h5l-3 4-1 13-2 1v-9z" fill="#2F8ACF"/>
<path transform="translate(1245,387)" d="m0 0 2 1-5 3v2l6-1-1 2-7 2-1-5-2-2 2-1z" fill="#9AC2E1"/>
<path transform="translate(501,377)" d="m0 0v3l-8 8-4 5-2-1 7-8 5-5z" fill="#234089"/>
<path transform="translate(599,313)" d="m0 0 3 2-11 5-7 3 1-3z" fill="#203B82"/>
<path transform="translate(1132,1361)" d="m0 0 3 1 5 6h4v3l-6-2-6-6z" fill="#1777C9"/>
<path transform="translate(1155,1193)" d="m0 0 4 3-1 3-4 2-4-1 4-5z" fill="#DEF3F9"/>
<path transform="translate(623,972)" d="m0 0 2 1-14 14v-3l8-9z" fill="#5295C8"/>
<path transform="translate(201,796)" d="m0 0 2 2 2-1 3 8-6-1-1 2z" fill="#0D7CD3"/>
<path transform="translate(212,650)" d="m0 0 2 2-1 9-2 5h-1l1-12z" fill="#1B86D7"/>
<path transform="translate(1309,635)" d="m0 0h5v8l-1-4-3 1v-2l-4 1v-3z" fill="#117CD1"/>
<path transform="translate(482,542)" d="m0 0 5 5 9 10-1 2-7-7-6-8z" fill="#223E87"/>
<path transform="translate(364,501)" d="m0 0h2l2 7 2 6v3h-2l-4-12z" fill="#051143"/>
<path transform="translate(361,396)" d="m0 0h1v8l-3 6h-1l1-12z" fill="#11235A"/>
<path transform="translate(1413,394)" d="m0 0 7 1 6 9-4-2-9-6z" fill="#F3FEFD"/>
<path transform="translate(866,1186)" d="m0 0 1 3h-2l-2 5-6 8-1-3z" fill="#AEDCF3"/>
<path transform="translate(426,931)" d="m0 0 8 1 4 2v2l-10-1 1-2z" fill="#5FC1F4"/>
<path transform="translate(1068,568)" d="m0 0 5 1 2 5-9-2-1-3z" fill="#425EB3"/>
<path transform="translate(791,463)" d="m0 0h1l1 8v9h-2l-1-10z" fill="#1B2E6B"/>
<path transform="translate(1239,505)" d="m0 0 1 2-2 5-6 1v-3l4-2z" fill="#2E569C"/>
<path transform="translate(1316,456)" d="m0 0 2 1-5 7-3-1-1-4z" fill="#A7C7E0"/>
<path transform="translate(1318,413)" d="m0 0h5v8l-4-2z" fill="#9CC2DF"/>
<path transform="translate(907,1173)" d="m0 0h3v2h3v2l4 2v3l-10-7z" fill="#98D2F0"/>
<path transform="translate(716,1127)" d="m0 0h11l3 2-8 1-6-1z" fill="#23418B"/>
<path transform="translate(970 1e3)" d="m0 0 14 2 1 3-15-3z" fill="#A9C9E1"/>
<path transform="translate(460,788)" d="m0 0 1 4-1 9-2 3h-2l3-15z" fill="#0A7BD5"/>
<path transform="translate(517,583)" d="m0 0 5 2 9 6v1h-9l4-2-9-6z" fill="#224089"/>
<path transform="translate(632,462)" d="m0 0 6 2v1l-6 2-5 4 1-6z" fill="#5295C7"/>
<path transform="translate(1238,441)" d="m0 0 5 3 5 5-1 2-2 1-6-8z" fill="#5392C7"/>
<path transform="translate(584,320)" d="m0 0m-2 1h2l-1 3-10 5-4 1 4-4z" fill="#223F88"/>
<path transform="translate(735,298)" d="m0 0 4 5 3 5v2l-4-2-4-6z" fill="#112158"/>
<path transform="translate(1437,1206)" d="m0 0 4 2 1 2v6l-3-6-4 1-3 1 1-3z" fill="#233E81"/>
<path transform="translate(1292,1127)" d="m0 0 2 1-5 6-7 6h-2l1-3 6-5h2l2-4z" fill="#213C83"/>
<path transform="translate(241,998)" d="m0 0 2 2-4 5-2 3-2-1 2-5z" fill="#0A174C"/>
<path transform="translate(791,781)" d="m0 0h13l-1 3-9-1z" fill="#F3FEFD"/>
<path transform="translate(1322,669)" d="m0 0h2l1 4-1 4 2 1v2h-2l-1 2-1-2z" fill="#097AD4"/>
<path transform="translate(1247,475)" d="m0 0h4v7l1 5-3-3-2-5z" fill="#30569C"/>
<path transform="translate(1273,460)" d="m0 0 4 4v6l3 1h-4v-4h-2l-1 2z" fill="#5E92D6"/>
<path transform="translate(842,1217)" d="m0 0 1 2-7 9-1 2-3-1 9-11z" fill="#B0E3F9"/>
<path transform="translate(707,1136)" d="m0 0h4v2l-10 5-3-1 6-4z" fill="#071448"/>
<path transform="translate(1126,493)" d="m0 0h2l-2 4-8 7v-3l2-1 1-3z" fill="#A9CAE2"/>
<path transform="translate(878,1153)" d="m0 0 9 6-2 2-5-3-4-1z" fill="#9ECBEA"/>
<path transform="translate(538,343)" d="m0 0m-2 1h2l-1 3-8 6-3-1z" fill="#213D86"/>
<path transform="translate(383,330)" d="m0 0 1 2-2 5h-2l-1 5h-2l3-9z" fill="#14245E"/>
<path transform="translate(1152,1375)" d="m0 0 4 1 7 4v3l-5-2-6-5z" fill="#D8F0F8"/>
<path transform="translate(1127,1220)" d="m0 0v3l-9 10v-3l7-8z" fill="#4A87BA"/>
<path transform="translate(1265,1215)" d="m0 0h2l-2 4-6 6-2-1z" fill="#3A519D"/>
<path transform="translate(581,1058)" d="m0 0 4 8-1 4-3-3z" fill="#0B7ED8"/>
<path transform="translate(286,626)" d="m0 0 10 1 5 1v1h-12l-3-1z" fill="#2988D2"/>
<path transform="translate(1101,582)" d="m0 0 5 2 10 6-3 2-5-4-7-5z" fill="#578CCC"/>
<path transform="translate(668,453)" d="m0 0 3 3 1 7 1 3-3-1-3-11z" fill="#9ECBE8"/>
<path transform="translate(676,427)" d="m0 0h2l-2 5-2 7-1-3-2-1 3-4z" fill="#6AB7E8"/>
<path transform="translate(1172,380)" d="m0 0 5 2 5 4-1 3h-2v-4l-4-1-3-2z" fill="#ACC8DF"/>
<path transform="translate(740,310)" d="m0 0h3l4 7v2l-4-2-1-4h-2z" fill="#0E1C53"/>
</svg>
