<?xml version="1.0" encoding="UTF-8"?>
<svg version="1.1" xmlns="http://www.w3.org/2000/svg" width="512" height="512">
<path d="M0 0 C4.63167131 2.93653098 8.02964641 7.28925819 10.11328125 12.33984375 C11.04530931 21.88055093 9.54829734 30.88405954 7.42266846 40.15014648 C7.12884972 41.48052539 6.83633542 42.81119291 6.54499412 44.14211655 C5.74906883 47.76038809 4.93495817 51.37434741 4.11755157 54.98781753 C3.23533655 58.9030783 2.37043802 62.82216772 1.50334167 66.74079895 C-0.00117918 73.52904878 -1.5164825 80.31481735 -3.03923798 87.09899902 C-5.25399831 96.96632281 -7.45207512 106.83730615 -9.64632419 116.70920873 C-13.2247961 132.8066184 -16.81646292 148.90105378 -20.41650391 164.99365234 C-23.88193388 180.48466066 -27.34142804 195.97697343 -30.79248047 211.47119141 C-31.00374631 212.41970305 -31.21501215 213.3682147 -31.43267998 214.34546912 C-32.49432886 219.11209538 -33.55585268 223.87874947 -34.617311 228.64541817 C-36.70672467 238.02816197 -38.79693271 247.41072878 -40.88751221 256.79321289 C-41.09097988 257.706375 -41.29444756 258.61953711 -41.50408092 259.5603708 C-44.2754748 271.99766894 -47.0498509 284.43429825 -49.82767037 296.87016284 C-50.39378644 299.4045937 -50.95981305 301.93904452 -51.5258348 304.47349644 C-53.1552105 311.76852799 -54.78539713 319.06337472 -56.41924034 326.35740715 C-57.27870141 330.19452848 -58.13753939 334.03178902 -58.99597168 337.86914062 C-59.16169018 338.60990306 -59.32740868 339.35066549 -59.49814895 340.11387527 C-61.71238053 350.01736873 -63.89467091 359.92733845 -66.04707655 369.84444666 C-67.00779619 374.26606885 -67.97509097 378.686261 -68.94076204 383.10680389 C-69.68237671 386.51879615 -70.41243023 389.93311897 -71.14193344 393.34771729 C-71.5852754 395.38004971 -72.0291599 397.4122639 -72.47369385 399.44433594 C-72.75470058 400.78811184 -72.75470058 400.78811184 -73.04138422 402.15903473 C-74.91816089 410.62451999 -77.45931483 417.34062957 -84.88671875 422.33984375 C-90.8140011 425.38956579 -96.68495033 426.54239417 -103.1796875 424.68359375 C-109.57783553 422.19721127 -113.37873615 418.40563115 -116.94285893 412.62769413 C-120.66217379 403.61233426 -117.28396763 391.63099231 -115.19610596 382.52954102 C-114.90228722 381.19916211 -114.60977292 379.86849459 -114.31843162 378.53757095 C-113.52250633 374.91929941 -112.70839567 371.30534009 -111.89098907 367.69186997 C-111.00877405 363.7766092 -110.14387552 359.85751978 -109.27677917 355.93888855 C-107.77225832 349.15063872 -106.256955 342.36487015 -104.73419952 335.58068848 C-102.51943919 325.71336469 -100.32136238 315.84238135 -98.12711331 305.97047877 C-94.5486414 289.8730691 -90.95697458 273.77863372 -87.35693359 257.68603516 C-83.89150362 242.19502684 -80.43200946 226.70271407 -76.98095703 211.20849609 C-76.76969119 210.25998445 -76.55842535 209.3114728 -76.34075752 208.33421838 C-75.27910864 203.56759212 -74.21758482 198.80093803 -73.1561265 194.03426933 C-71.06671283 184.65152553 -68.97650479 175.26895872 -66.88592529 165.88647461 C-66.68245762 164.9733125 -66.47898994 164.06015039 -66.26935658 163.1193167 C-63.4979627 150.68201856 -60.7235866 138.24538925 -57.94576713 125.80952466 C-57.37965106 123.2750938 -56.81362445 120.74064298 -56.2476027 118.20619106 C-54.618227 110.91115951 -52.98804037 103.61631278 -51.35419716 96.32228035 C-50.49473609 92.48515902 -49.63589811 88.64789848 -48.77746582 84.81054688 C-48.61174732 84.06978444 -48.44602882 83.32902201 -48.27528855 82.56581223 C-46.06105697 72.66231877 -43.87876659 62.75234905 -41.72636095 52.83524084 C-40.76564131 48.41361865 -39.79834653 43.9934265 -38.83267546 39.57288361 C-38.09106079 36.16089135 -37.36100727 32.74656853 -36.63150406 29.33197021 C-36.1881621 27.29963779 -35.7442776 25.2674236 -35.29974365 23.23535156 C-35.11240583 22.33950096 -34.92506801 21.44365036 -34.73205328 20.52065277 C-32.85527661 12.05516751 -30.31412267 5.33905793 -22.88671875 0.33984375 C-15.03678229 -3.69912771 -7.91499235 -3.84130026 0 0 Z " fill="#000000" transform="translate(309.88671875,44.66015625)"/>
<path d="M0 0 C1.63001953 -0.05607422 1.63001953 -0.05607422 3.29296875 -0.11328125 C13.14322381 1.07837003 19.10011865 8.02571024 25.75488281 14.73730469 C26.83247905 15.80947318 27.91092271 16.88079053 28.99014282 17.95132446 C31.90418248 20.84720564 34.80551915 23.75550412 37.7041254 26.66682339 C40.74716579 29.72003023 43.79999875 32.76342096 46.85125732 35.80841064 C51.97250683 40.92239436 57.08529106 46.04472768 62.19335938 51.171875 C68.08898018 57.08926238 73.99887224 62.99210232 79.91638303 68.88759303 C85.00761318 73.96063879 90.09096623 79.04147878 95.16788363 84.12884831 C98.19532879 87.16251167 101.22536901 90.19345037 104.26255035 93.21736908 C107.11824867 96.0614653 109.96389435 98.91525997 112.80225754 101.77665329 C113.84204462 102.82170419 114.88520383 103.86341307 115.9320488 104.90139389 C127.86574747 116.74336746 127.86574747 116.74336746 129.34375 125.4375 C129.3334375 126.38625 129.323125 127.335 129.3125 128.3125 C129.32796875 129.735625 129.32796875 129.735625 129.34375 131.1875 C127.70631448 140.81947363 120.90595927 146.79211887 114.2800293 153.36254883 C113.19638612 154.45161955 112.1135941 155.54153776 111.03158569 156.63223267 C108.10478154 159.57719557 105.16555854 162.50945696 102.22331595 165.43898606 C99.1389461 168.5131922 96.06438903 171.59718777 92.98823547 174.67961121 C87.82297721 179.85213496 82.64936889 185.01619413 77.47094727 190.17553711 C71.49105068 196.13365566 65.52571571 202.10606265 59.56771725 208.08607274 C54.44287655 213.22908495 49.31025742 218.36423665 44.17109615 223.49293917 C41.10560404 226.5522075 38.04284939 229.61408499 34.98709679 232.68308449 C32.11426785 235.5674971 29.23177409 238.44189365 26.34164047 241.30896378 C25.28487696 242.36045418 24.231473 243.41533387 23.18177605 244.47387886 C12.05847166 255.68224192 12.05847166 255.68224192 3.49609375 256.7109375 C-4.16740791 256.65560536 -8.79995895 256.13545087 -14.8125 251.125 C-19.90376971 245.09586482 -21.6235739 240.11836617 -21.71875 232.21875 C-20.11196322 223.42868114 -14.41934427 217.98600387 -8.28808594 211.95898438 C-7.39017334 211.06048767 -6.49226074 210.16199097 -5.56713867 209.23626709 C-3.1217798 206.78976741 -0.66434641 204.35574 1.79555225 201.92387199 C4.37055492 199.37398932 6.93412487 196.81266335 9.4989624 194.25256348 C14.34990993 189.4140147 19.21095682 184.58574726 24.07577491 179.76114893 C29.61694587 174.26479247 35.14667135 168.75698153 40.67549562 163.24820995 C52.04186817 151.92357145 63.42242804 140.61330296 74.8125 129.3125 C73.38625145 126.05944398 71.65559428 123.91536102 69.13746643 121.4238739 C68.37336456 120.66280334 67.6092627 119.90173279 66.82200623 119.11759949 C65.98299271 118.2920607 65.14397919 117.46652191 64.27954102 116.6159668 C63.39649292 115.73905182 62.51344482 114.86213684 61.6036377 113.95864868 C59.68449133 112.05381569 57.76366176 110.15086797 55.83990669 108.25070763 C52.79553807 105.24298069 49.75992285 102.22652296 46.72581482 99.20845032 C38.09735639 90.62825014 29.45724778 82.05983883 20.80834961 73.50024414 C16.02997735 68.7710568 11.25888937 64.03463973 6.49542373 59.29043704 C3.48372831 56.29179031 0.46326284 53.30236446 -2.56410396 50.3195442 C-4.89251953 48.02020611 -7.20778851 45.70769059 -9.52514648 43.3972168 C-10.36213577 42.5777507 -11.19912506 41.75828461 -12.06147766 40.91398621 C-17.70801555 35.24824418 -21.58623104 30.34203027 -21.6875 22 C-21.47494354 15.28136759 -19.34114825 9.31433149 -14.40234375 4.61328125 C-9.63670774 1.08205627 -5.81230946 0.12946528 0 0 Z " fill="#000000" transform="translate(362.1875,127.6875)"/>
<path d="M0 0 C5.4887219 3.97932338 9.43685851 8.3031231 11.5 14.8125 C12.55533023 22.12519231 11.4525747 27.52462144 7.5 33.8125 C4.72677352 37.1288244 1.68189247 40.13709504 -1.39941406 43.16601562 C-2.29732666 44.06451233 -3.19523926 44.96300903 -4.12036133 45.88873291 C-6.5657202 48.33523259 -9.02315359 50.76926 -11.48305225 53.20112801 C-14.05805492 55.75101068 -16.62162487 58.31233665 -19.1864624 60.87243652 C-24.03740993 65.7109853 -28.89845682 70.53925274 -33.76327491 75.36385107 C-39.30444587 80.86020753 -44.83417135 86.36801847 -50.36299562 91.87679005 C-61.72936817 103.20142855 -73.10992804 114.51169704 -84.5 125.8125 C-83.07375145 129.06555602 -81.34309428 131.20963898 -78.82496643 133.7011261 C-78.06086456 134.46219666 -77.2967627 135.22326721 -76.50950623 136.00740051 C-75.25098595 137.24570869 -75.25098595 137.24570869 -73.96704102 138.5090332 C-73.08399292 139.38594818 -72.20094482 140.26286316 -71.2911377 141.16635132 C-69.37199133 143.07118431 -67.45116176 144.97413203 -65.52740669 146.87429237 C-62.48303807 149.88201931 -59.44742285 152.89847704 -56.41331482 155.91654968 C-47.78485639 164.49674986 -39.14474778 173.06516117 -30.49584961 181.62475586 C-25.71747735 186.3539432 -20.94638937 191.09036027 -16.18292373 195.83456296 C-13.17122831 198.83320969 -10.15076284 201.82263554 -7.12339604 204.8054558 C-4.79498047 207.10479389 -2.47971149 209.41730941 -0.16235352 211.7277832 C0.67463577 212.5472493 1.51162506 213.36671539 2.37397766 214.21101379 C8.02051555 219.87675582 11.89873104 224.78296973 12 233.125 C11.78744354 239.84363241 9.65364825 245.81066851 4.71484375 250.51171875 C-0.05079226 254.04294373 -3.87519054 254.99553472 -9.6875 255.125 C-10.77417969 255.16238281 -11.86085938 255.19976562 -12.98046875 255.23828125 C-22.83072381 254.04662997 -28.78761865 247.09928976 -35.44238281 240.38769531 C-36.51997905 239.31552682 -37.59842271 238.24420947 -38.67764282 237.17367554 C-41.59168248 234.27779436 -44.49301915 231.36949588 -47.3916254 228.45817661 C-50.43466579 225.40496977 -53.48749875 222.36157904 -56.53875732 219.31658936 C-61.66000683 214.20260564 -66.77279106 209.08027232 -71.88085938 203.953125 C-77.77648018 198.03573762 -83.68637224 192.13289768 -89.60388303 186.23740697 C-94.69511318 181.16436121 -99.77846623 176.08352122 -104.85538363 170.99615169 C-107.88282879 167.96248833 -110.91286901 164.93154963 -113.95005035 161.90763092 C-116.80574867 159.0635347 -119.65139435 156.20974003 -122.48975754 153.34834671 C-123.52954462 152.30329581 -124.57270383 151.26158693 -125.6195488 150.22360611 C-137.55324747 138.38163254 -137.55324747 138.38163254 -139.03125 129.6875 C-139.0209375 128.73875 -139.010625 127.79 -139 126.8125 C-139.0103125 125.86375 -139.020625 124.915 -139.03125 123.9375 C-137.39381448 114.30552637 -130.59345927 108.33288113 -123.9675293 101.76245117 C-122.88388612 100.67338045 -121.8010941 99.58346224 -120.71908569 98.49276733 C-117.79228154 95.54780443 -114.85305854 92.61554304 -111.91081595 89.68601394 C-108.8264461 86.6118078 -105.75188903 83.52781223 -102.67573547 80.44538879 C-97.51047721 75.27286504 -92.33686889 70.10880587 -87.15844727 64.94946289 C-81.17855068 58.99134434 -75.21321571 53.01893735 -69.25521725 47.03892726 C-64.13037655 41.89591505 -58.99775742 36.76076335 -53.85859615 31.63206083 C-50.79310404 28.5727925 -47.73034939 25.51091501 -44.67459679 22.44191551 C-41.80176785 19.5575029 -38.91927409 16.68310635 -36.02914047 13.81603622 C-34.97237696 12.76454582 -33.918973 11.70966613 -32.86927605 10.65112114 C-23.18630337 0.89410385 -14.16445525 -4.80579732 0 0 Z " fill="#000000" transform="translate(159.5,129.1875)"/>
</svg>
