<?xml version="1.0" encoding="UTF-8"?>
<svg version="1.1" xmlns="http://www.w3.org/2000/svg" width="512" height="512">
<path d="M0 0 C70.82410998 -1.62151699 130.12337336 24.99875515 183.73095703 69.46240234 C186.32467978 71.61028802 188.92988098 73.74363467 191.53759766 75.87451172 C192.39095703 76.57189453 193.24431641 77.26927734 194.12353516 77.98779297 C194.96142578 78.67228516 195.79931641 79.35677734 196.66259766 80.06201172 C198.49604802 81.56186867 200.32937937 83.06187112 202.16259766 84.56201172 C203.07009766 85.30451172 203.97759766 86.04701172 204.91259766 86.81201172 C213.16259766 93.56201172 213.16259766 93.56201172 215.90869141 95.81201172 C217.75088276 97.31712125 219.59727916 98.81709804 221.44775391 100.31201172 C245.70344367 119.96219077 245.70344367 119.96219077 247.98291016 137.53076172 C248.43876924 146.89106815 245.59209599 156.87495452 239.54931641 164.10498047 C233.24359157 170.64570126 226.32224175 176.45863059 219.18994141 182.06982422 C214.62663973 185.66686263 210.15450331 189.37650708 205.66259766 193.06201172 C203.82949604 194.56229488 201.99616338 196.0622958 200.16259766 197.56201172 C199.25509766 198.30451172 198.34759766 199.04701172 197.41259766 199.81201172 C189.16259766 206.56201172 189.16259766 206.56201172 186.38525391 208.83154297 C184.6393093 210.26186488 182.8967984 211.69639457 181.15869141 213.13623047 C178.34131862 215.46325135 175.50859052 217.77016452 172.66259766 220.06201172 C172.01403809 220.58456543 171.36547852 221.10711914 170.69726562 221.64550781 C146.23439108 241.25726045 119.54748997 257.12778033 89.66259766 267.06201172 C88.83211914 267.33980469 88.00164062 267.61759766 87.14599609 267.90380859 C22.69796748 289.11202552 -47.07056188 282.22492551 -107.42333984 252.12841797 C-126.59055661 242.32357848 -143.98263875 229.77754711 -160.23583984 215.70263672 C-163.49462202 212.89513452 -166.87483463 210.25774566 -170.27490234 207.62451172 C-175.69129831 203.42176049 -180.91122806 199.03690812 -186.0871582 194.54272461 C-190.08092638 191.09267491 -194.16599241 187.79427182 -198.33740234 184.56201172 C-203.25354745 180.7404987 -208.08699987 176.83820572 -212.83740234 172.81201172 C-213.40072266 172.34085938 -213.96404297 171.86970703 -214.54443359 171.38427734 C-219.98997125 166.72502854 -225.14881519 161.79021088 -227.64990234 154.93701172 C-228.10816406 153.72658203 -228.10816406 153.72658203 -228.57568359 152.49169922 C-231.90378129 141.87592094 -230.53655472 132.27120094 -226.33740234 122.06201172 C-220.88583477 112.07882859 -210.61881599 105.1942666 -201.79248047 98.35961914 C-197.53126218 95.04616644 -193.41162101 91.60210329 -189.33740234 88.06201172 C-184.20434967 83.60462469 -178.95032145 79.35749662 -173.57421875 75.19775391 C-169.5016896 72.02784634 -165.59363107 68.71196132 -161.71240234 65.31201172 C-116.59555316 26.18168578 -60.12829108 1.59521474 0 0 Z M-60.33740234 66.06201172 C-61.01158203 66.63306641 -61.68576172 67.20412109 -62.38037109 67.79248047 C-81.20303432 85.18444245 -91.27774382 111.30204709 -92.50537109 136.51123047 C-92.65554296 161.40972654 -85.118709 184.68992974 -69.33740234 204.06201172 C-68.34160156 205.30337891 -68.34160156 205.30337891 -67.32568359 206.56982422 C-52.10682936 224.51738245 -30.49869663 236.20179601 -7.33740234 240.06201172 C-6.67224609 240.17287109 -6.00708984 240.28373047 -5.32177734 240.39794922 C19.66754561 243.82241199 45.82818906 237.59563776 66.47509766 223.08544922 C68.9437283 221.14911706 71.30832388 219.13535535 73.66259766 217.06201172 C74.48115234 216.38654297 75.29970703 215.71107422 76.14306641 215.01513672 C96.47096952 197.7442981 107.65145074 172.36482761 109.83105469 146.02636719 C111.47643226 117.83464692 100.71980653 92.18812408 82.66259766 71.06201172 C82.09154297 70.38783203 81.52048828 69.71365234 80.93212891 69.01904297 C63.77903014 50.45489237 37.86826325 40.23135913 12.97900391 38.85888672 C-14.97423001 38.50983489 -39.19583227 47.99159061 -60.33740234 66.06201172 Z M119.66259766 64.06201172 C121.09804861 68.0573502 123.04164553 71.64130783 125.09008789 75.34228516 C142.57444163 107.1672303 146.43820198 144.12204361 136.35009766 179.06201172 C132.9522205 190.14988922 127.67822169 200.27441688 122.08056641 210.38232422 C120.57587875 213.04850048 120.57587875 213.04850048 119.66259766 216.06201172 C136.76619483 209.84533354 151.93306169 194.08150786 165.74707031 182.64550781 C170.03704544 179.09914295 174.35209072 175.58336431 178.66259766 172.06201172 C180.49604802 170.56215476 182.32937937 169.06215232 184.16259766 167.56201172 C187.82926432 164.56201172 191.49593099 161.56201172 195.16259766 158.56201172 C196.05978516 157.82724609 196.95697266 157.09248047 197.88134766 156.33544922 C199.81609773 154.75395407 201.75382284 153.17609437 203.69384766 151.60107422 C204.67353516 150.80443359 205.65322266 150.00779297 206.66259766 149.18701172 C207.99291016 148.10806641 207.99291016 148.10806641 209.35009766 147.00732422 C210.49478516 146.04439453 210.49478516 146.04439453 211.66259766 145.06201172 C212.28134766 144.58505859 212.90009766 144.10810547 213.53759766 143.61669922 C214.9035215 142.05529877 214.9035215 142.05529877 214.62744141 139.64404297 C213.40957294 136.3848889 211.86561288 135.0028063 209.22509766 132.74951172 C207.85417969 131.57195312 207.85417969 131.57195312 206.45556641 130.37060547 C203.1817822 127.66458244 199.89165712 124.98584446 196.55712891 122.35498047 C192.92163177 119.47503874 189.32283596 116.55139987 185.72509766 113.62451172 C185.0294873 113.05893555 184.33387695 112.49335938 183.6171875 111.91064453 C179.79392942 108.80059361 175.97548046 105.68477999 172.16259766 102.56201172 C170.32938697 101.06186183 168.49604108 99.56187716 166.66259766 98.06201172 C166.06479492 97.5723291 165.46699219 97.08264648 164.85107422 96.578125 C153.35085772 87.16443359 141.88982258 77.78539312 129.53759766 69.49951172 C128.89749756 69.06936768 128.25739746 68.63922363 127.59790039 68.19604492 C124.97016549 66.46104123 122.6642979 65.06257847 119.66259766 64.06201172 Z M-103.33740234 64.06201172 C-116.84526118 72.44619996 -129.08335906 81.93366982 -141.33740234 92.06201172 C-143.16992126 93.56300656 -145.00325903 95.06300224 -146.83740234 96.56201172 C-147.74490234 97.30451172 -148.65240234 98.04701172 -149.58740234 98.81201172 C-159.67073568 107.06201172 -169.75406901 115.31201172 -179.83740234 123.56201172 C-180.73201172 124.29806641 -181.62662109 125.03412109 -182.54833984 125.79248047 C-184.49598198 127.37732652 -186.4610784 128.94085659 -188.43896484 130.48779297 C-189.43669922 131.27541016 -190.43443359 132.06302734 -191.46240234 132.87451172 C-192.37248047 133.58220703 -193.28255859 134.28990234 -194.22021484 135.01904297 C-196.36985488 136.88722762 -196.36985488 136.88722762 -197.39208984 139.01123047 C-197.30451901 142.29513691 -195.54002927 143.73111201 -193.33740234 146.06201172 C-191.85734251 147.36003211 -190.33393391 148.60999067 -188.77490234 149.81201172 C-185.11705399 152.67071138 -181.48823622 155.55378778 -177.89990234 158.49951172 C-176.98337891 159.25103516 -176.06685547 160.00255859 -175.12255859 160.77685547 C-174.20345703 161.53095703 -173.28435547 162.28505859 -172.33740234 163.06201172 C-170.50430073 164.56229488 -168.67096807 166.0622958 -166.83740234 167.56201172 C-161.33740234 172.06201172 -161.33740234 172.06201172 -155.83740234 176.56201172 C-154.92345703 177.30966797 -154.00951172 178.05732422 -153.06787109 178.82763672 C-151.29917439 180.27498223 -149.53091691 181.72286473 -147.76318359 183.17138672 C-145.97492859 184.63620547 -144.18445459 186.09831831 -142.39208984 187.55810547 C-140.15567775 189.39127702 -137.93426682 191.23743389 -135.72021484 193.09716797 C-120.25472043 206.62277069 -120.25472043 206.62277069 -102.33740234 216.06201172 C-103.57514118 212.73631159 -104.99343745 209.94195925 -106.96240234 206.99951172 C-124.7740843 177.70627988 -128.47837418 140.72656748 -120.80126953 107.75976562 C-117.2438635 93.6622386 -111.8096713 80.73652469 -103.77880859 68.60888672 C-103.0653125 67.34818359 -103.0653125 67.34818359 -102.33740234 66.06201172 C-102.83240234 65.07201172 -102.83240234 65.07201172 -103.33740234 64.06201172 Z " fill="#000000" transform="translate(247.33740234375,115.93798828125)"/>
<path d="M0 0 C0.95003906 -0.00773438 1.90007812 -0.01546875 2.87890625 -0.0234375 C8.27009539 -0.00848275 12.77883699 0.47128382 17.875 2.25 C17.35099609 3.37148437 17.35099609 3.37148437 16.81640625 4.515625 C16.36136719 5.50046875 15.90632813 6.4853125 15.4375 7.5 C14.98503906 8.47453125 14.53257812 9.4490625 14.06640625 10.453125 C10.42941225 18.99111746 11.57954082 26.79022818 14.875 35.25 C18.96468602 42.97496248 25.6630053 48.46102067 33.875 51.25 C44.08223323 54.12896322 52.7769932 50.9690596 61.875 46.25 C63.93838201 52.20996797 64.22504979 57.65595669 64.1875 63.9375 C64.18186035 64.91702637 64.1762207 65.89655273 64.17041016 66.90576172 C63.87154828 84.73390823 56.99490928 98.45277396 44.890625 111.3671875 C40.53098316 115.57932266 35.78783986 118.66898975 30.5 121.5625 C29.6181604 122.05097412 29.6181604 122.05097412 28.71850586 122.54931641 C19.68229709 127.25142153 10.54235236 128.77460078 0.4375 128.625 C-0.573125 128.61339844 -1.58375 128.60179687 -2.625 128.58984375 C-20.18276083 128.20470577 -35.13667925 121.52310878 -47.53515625 109.10546875 C-61.71385389 93.47254571 -64.94811279 76.21750037 -64.26416016 55.88085938 C-63.43195871 40.14787195 -54.48043985 25.73861238 -43.125 15.25 C-30.46762676 4.60957404 -16.30600591 -0.13383863 0 0 Z " fill="#000000" transform="translate(256.125,191.75)"/>
</svg>
