<?xml version="1.0" encoding="UTF-8"?>
<svg version="1.1" xmlns="http://www.w3.org/2000/svg" width="512" height="512">
<path d="M0 0 C1.01790619 0.00215515 2.03581238 0.0043103 3.08456421 0.00653076 C17.69363523 0.05620146 32.02575853 0.30709809 46.375 3.3125 C47.34985352 3.51117676 48.32470703 3.70985352 49.32910156 3.91455078 C97.37402273 13.96468706 141.56847595 35.56129574 176.87475586 69.90942383 C178.93859956 71.83959628 181.16756034 73.55032168 183.375 75.3125 C184.47309154 76.46716769 185.5374861 77.65499631 186.5625 78.875 C188.5262211 81.18501171 190.50144722 83.44563755 192.58984375 85.64453125 C205.21399451 98.96434023 215.27358599 114.43358226 224.375 130.3125 C224.80409668 131.06080078 225.23319336 131.80910156 225.67529297 132.58007812 C238.37173715 155.02119946 246.75227501 179.33880238 252.125 204.5 C252.42325684 205.88723267 252.42325684 205.88723267 252.72753906 207.30249023 C255.99895258 223.40845016 256.78178567 239.29366185 256.75 255.6875 C256.74978851 256.69763153 256.74957703 257.70776306 256.74935913 258.74850464 C256.71561072 274.93894501 255.74801109 290.43135494 252.375 306.3125 C252.19308105 307.22032227 252.01116211 308.12814453 251.82373047 309.06347656 C243.29323682 351.12894926 223.98998875 389.60903506 196.375 422.3125 C195.90707031 422.92609375 195.43914062 423.5396875 194.95703125 424.171875 C192.02001269 428.01186043 188.93789476 430.71009751 184.375 432.3125 C179.46438892 432.9097218 174.56211472 432.86169608 169.62307739 432.83389282 C168.10551606 432.839937 166.58796082 432.84771655 165.07041633 432.85707796 C160.90772278 432.87764137 156.74537368 432.87327373 152.58265185 432.86471677 C148.09036211 432.85978286 143.59815535 432.87780985 139.105896 432.89279175 C130.30793893 432.91829165 121.51010393 432.92187242 112.71211614 432.91719122 C105.56083942 432.91362522 98.40959977 432.91712339 91.25832748 432.92564011 C89.73164848 432.92742567 89.73164848 432.92742567 88.17412748 432.92924731 C86.1064938 432.93167081 84.03886011 432.93409908 81.97122644 432.93653207 C62.58043138 432.95828544 43.18970589 432.95395697 23.79890691 432.94176237 C6.06119572 432.93142388 -11.67629581 432.95393473 -29.41396354 432.99195881 C-47.62891931 433.03070658 -65.84377113 433.04722921 -84.05876839 433.03971231 C-94.28434803 433.03588682 -104.50974069 433.04087736 -114.73528671 433.06914139 C-123.44047817 433.09295961 -132.14536758 433.09578973 -140.85056315 433.07156105 C-145.29130749 433.05977657 -149.73149923 433.05760223 -154.17220688 433.08156586 C-158.2399822 433.10326175 -162.30674287 433.09710602 -166.37447049 433.06904249 C-167.84345557 433.06374224 -169.31251988 433.0685022 -170.78142725 433.08451422 C-179.71221484 433.17508416 -185.89744634 432.49023159 -192.625 426.3125 C-194.86739697 424.06954059 -196.86839541 421.75545081 -198.8125 419.25 C-199.35366455 418.56663574 -199.8948291 417.88327148 -200.45239258 417.17919922 C-236.43224803 370.91422962 -256.1598513 315.40080354 -255.9375 256.75 C-255.93534485 255.72926392 -255.9331897 254.70852783 -255.93096924 253.65686035 C-255.88130885 239.01651952 -255.57934012 224.69931354 -252.625 210.3125 C-252.42632324 209.29994141 -252.22764648 208.28738281 -252.02294922 207.24414062 C-242.60716498 160.15816641 -221.02340662 117.28185007 -188.23828125 82.171875 C-186.43090247 80.19429463 -184.71108028 78.2258346 -183.01953125 76.15625 C-181.09327842 73.86862837 -179.27918745 71.97018994 -177 70.0625 C-174.71117944 68.12124108 -172.47365787 66.16877576 -170.296875 64.1015625 C-137.84833917 33.34512824 -94.77169983 13.81574549 -51.4375 4.5625 C-50.51267822 4.36366211 -49.58785645 4.16482422 -48.63500977 3.95996094 C-32.42831484 0.66808631 -16.49462105 -0.0628085 0 0 Z M-136.625 89.3125 C-133.40594424 93.17536691 -130.17771257 96.75772311 -126.5 100.1875 C-121.39683757 105.26133391 -118.52409333 110.61649015 -118.125 117.875 C-118.41083581 123.33446395 -120.33173258 127.83702777 -124.05078125 131.8515625 C-129.03093623 136.25262969 -133.5773079 137.84402608 -140.12060547 137.60571289 C-148.25525757 136.65331309 -153.79713082 131.83412489 -159.1875 126.0625 C-159.81462891 125.4128125 -160.44175781 124.763125 -161.08789062 124.09375 C-162.61250031 122.51094911 -164.12405375 120.9177009 -165.625 119.3125 C-169.61835767 123.06926736 -172.74334464 127.02839389 -175.8125 131.5625 C-176.2873584 132.26213867 -176.7622168 132.96177734 -177.25146484 133.68261719 C-196.94934915 163.03658352 -214.36154611 200.22174042 -213.625 236.3125 C-212.90957031 236.31660889 -212.19414062 236.32071777 -211.45703125 236.32495117 C-208.17887875 236.35808256 -204.90253672 236.4287492 -201.625 236.5 C-200.49964844 236.50580078 -199.37429687 236.51160156 -198.21484375 236.51757812 C-191.12360259 236.70418973 -186.05157063 237.53925537 -180.625 242.3125 C-176.02469456 247.71785889 -175.95717775 252.94639198 -176.1796875 259.92578125 C-176.79848594 264.6319062 -178.12073743 268.06239274 -181.625 271.3125 C-187.92667161 276.05587781 -193.85473591 275.96609818 -201.5625 276.0625 C-202.72330078 276.09214844 -203.88410156 276.12179687 -205.08007812 276.15234375 C-207.9284538 276.22267401 -210.77602837 276.27555414 -213.625 276.3125 C-213.89074938 283.60162593 -212.92624476 290.18607655 -211.4375 297.3125 C-211.20756348 298.42117432 -210.97762695 299.52984863 -210.74072266 300.67211914 C-204.10871047 331.93699519 -191.12926792 360.91701123 -171.625 386.3125 C-171.02546383 387.347564 -170.42592766 388.382628 -169.80822372 389.44905758 C-167.92162747 391.66936348 -166.8707068 392.26018595 -163.98629427 392.87431347 C-160.44713578 393.10581823 -156.95115891 393.13570843 -153.40435791 393.10804749 C-152.02875198 393.11854245 -150.65316383 393.13163513 -149.27760482 393.14710134 C-145.49791837 393.1818803 -141.71904647 393.17913248 -137.93924475 393.17014325 C-133.86266136 393.1668633 -129.78631763 393.19794372 -125.70983887 393.22441101 C-117.72305907 393.27040336 -109.7365573 393.28316986 -101.74965742 393.28306026 C-95.25715773 393.28317844 -88.76474726 393.29314345 -82.2722702 393.3100872 C-63.86461703 393.357178 -45.45717468 393.38023076 -27.04946187 393.37090737 C-25.56076438 393.37015368 -25.56076438 393.37015368 -24.04199219 393.36938477 C-23.04831516 393.36887717 -22.05463812 393.36836958 -21.03084967 393.3678466 C-4.92882025 393.36105353 11.17247331 393.41057186 27.27430865 393.48599381 C43.80777954 393.56283068 60.34089451 393.59870875 76.8745482 393.59149545 C86.15693308 393.58825509 95.43859001 393.6017323 104.72081757 393.6589222 C112.62480592 393.70726346 120.52770574 393.71735952 128.43176386 393.67809433 C132.46394102 393.65914328 136.49405746 393.65780521 140.52605438 393.70450974 C144.22104617 393.74685499 147.91232272 393.7380018 151.60720113 393.68911152 C153.56982133 393.67617919 155.53257068 393.71718398 157.49475837 393.76036698 C162.75273652 393.64612234 166.04944464 393.46499322 170.10745287 389.9367913 C172.41734067 387.15659694 174.42798472 384.35514955 176.375 381.3125 C176.95653076 380.47081758 177.53806152 379.62913516 178.13721442 378.76194721 C179.63780118 376.58632728 181.04616855 374.37188712 182.4375 372.125 C182.9442627 371.31329346 183.45102539 370.50158691 183.97314453 369.6652832 C188.61762176 362.11487552 192.67425215 354.36269001 196.375 346.3125 C196.90609375 345.16652344 197.4371875 344.02054687 197.984375 342.83984375 C205.40382139 326.18433394 209.88550626 309.16851308 213.375 291.3125 C213.58511719 290.28640625 213.79523438 289.2603125 214.01171875 288.203125 C214.51069275 284.23279424 214.45491422 280.30821077 214.375 276.3125 C213.65957031 276.30839111 212.94414062 276.30428223 212.20703125 276.30004883 C208.92887875 276.26691744 205.65253672 276.1962508 202.375 276.125 C201.24964844 276.11919922 200.12429688 276.11339844 198.96484375 276.10742188 C191.87360259 275.92081027 186.80157063 275.08574463 181.375 270.3125 C176.77469456 264.90714111 176.70717775 259.67860802 176.9296875 252.69921875 C177.54848594 247.9930938 178.87073743 244.56260726 182.375 241.3125 C188.67667161 236.56912219 194.60473591 236.65890182 202.3125 236.5625 C203.47330078 236.53285156 204.63410156 236.50320313 205.83007812 236.47265625 C208.6784538 236.40232599 211.52602837 236.34944586 214.375 236.3125 C214.62991505 229.09240616 213.71554301 222.5617502 212.25 215.5 C212.0226416 214.39978516 211.7952832 213.29957031 211.56103516 212.16601562 C205.8202046 185.16965246 195.54927736 160.41379475 180.375 137.3125 C179.94864258 136.66249023 179.52228516 136.01248047 179.08300781 135.34277344 C147.37664223 87.69522167 97.16699103 56.07333845 41.59765625 44.3125 C34.56802244 42.91046777 27.50883385 41.99726629 20.375 41.3125 C20.37089111 42.05822266 20.36678223 42.80394531 20.36254883 43.57226562 C20.32943479 46.98645512 20.2587689 50.39890234 20.1875 53.8125 C20.17879883 55.57207031 20.17879883 55.57207031 20.16992188 57.3671875 C19.98773443 64.57371297 19.26951235 69.81169739 14.375 75.3125 C8.96964111 79.91280544 3.74110802 79.98032225 -3.23828125 79.7578125 C-7.9444062 79.13901406 -11.37489274 77.81676257 -14.625 74.3125 C-19.49036738 67.91902085 -19.28097439 61.70904309 -19.375 53.875 C-19.40464844 52.66650391 -19.43429688 51.45800781 -19.46484375 50.21289062 C-19.53520413 47.24602792 -19.58807021 44.27993576 -19.625 41.3125 C-61.6641108 41.3125 -104.31750956 64.40880946 -136.625 89.3125 Z " fill="#000000" transform="translate(255.625,39.6875)"/>
<path d="M0 0 C5.62980041 5.00058742 8.61237304 9.81362882 9.3125 17.375 C7.99515875 32.65615854 -7.40186673 43.540098 -17.66015625 53.7578125 C-19.05998852 55.15577559 -20.45959713 56.55396266 -21.85899353 57.95236206 C-25.51123859 61.60082127 -29.16647844 65.24626522 -32.8223877 68.89105225 C-36.56507468 72.62343976 -40.30486977 76.35872253 -44.04492188 80.09375 C-51.36048159 87.3986419 -58.67921393 94.7003461 -66 102 C-65.79503906 102.66386719 -65.59007812 103.32773437 -65.37890625 104.01171875 C-65.10949219 104.89472656 -64.84007812 105.77773438 -64.5625 106.6875 C-64.29566406 107.55761719 -64.02882813 108.42773438 -63.75390625 109.32421875 C-59.15842532 125.63460442 -61.21495608 142.70078239 -68.6875 157.6875 C-77.25986484 172.48452172 -90.51438841 182.17334289 -106.734375 187.14453125 C-122.9885714 190.94564988 -140.0781946 188.0381238 -154.37109375 179.7578125 C-168.0387061 170.61899295 -177.85438536 157.33481957 -181.62280273 141.22045898 C-184.50954966 124.22695523 -181.60196485 107.36027187 -172 93 C-162.13538951 80.32490614 -149.14628105 70.74282619 -133 68 C-129.43278063 67.68601749 -125.89236933 67.62066076 -122.3125 67.625 C-121.34586426 67.62226074 -120.37922852 67.61952148 -119.38330078 67.61669922 C-112.46373876 67.71047277 -106.89347055 68.68176677 -100.4609375 71.3203125 C-98.05544697 72.25132293 -98.05544697 72.25132293 -96.03465748 71.21717644 C-94.04633639 70.02771944 -92.60830034 68.84769481 -90.98454285 67.2048645 C-90.41699783 66.63573334 -89.84945282 66.06660217 -89.26470947 65.48022461 C-88.65423767 64.85784912 -88.04376587 64.23547363 -87.41479492 63.59423828 C-86.43592064 62.60857376 -86.43592064 62.60857376 -85.43727112 61.60299683 C-84.0218907 60.17666508 -82.6087919 58.74806643 -81.19771385 57.31747818 C-78.96161148 55.05120076 -76.71888687 52.79167545 -74.47419739 50.53390503 C-68.09361798 44.11358849 -61.72573717 37.68072982 -55.36108398 31.24462891 C-51.46599737 27.30674762 -47.5635645 23.37626573 -43.65676308 19.45000839 C-42.17194174 17.95464077 -40.69004135 16.45636676 -39.2111721 14.95511246 C-37.13873561 12.85136367 -35.05713693 10.75708746 -32.97338867 8.66455078 C-32.06679001 7.73706024 -32.06679001 7.73706024 -31.14187622 6.79083252 C-22.52188747 -1.81069414 -11.47448597 -6.77219662 0 0 Z M-139 117.5625 C-141.91388882 122.80551763 -141.95610282 128.17717706 -141 134 C-139.04435326 139.44530996 -135.40701267 143.34964702 -130.37109375 146.1484375 C-124.89747817 148.11425002 -119.10252183 148.11425002 -113.62890625 146.1484375 C-108.59298733 143.34964702 -104.95564674 139.44530996 -103 134 C-102.04389718 128.17717706 -102.08611118 122.80551763 -105 117.5625 C-108.70529004 112.6186729 -112.73267371 109.53649234 -118.90234375 108.5234375 C-127.74979717 108.09947378 -133.65836177 110.43535595 -139 117.5625 Z " fill="#000000" transform="translate(378,168)"/>
</svg>
